<?xml version="1.0" standalone="no"?>
<!DOCTYPE svg PUBLIC "-//W3C//DTD SVG 1.1//EN" "http://www.w3.org/Graphics/SVG/1.1/DTD/svg11.dtd" >
<svg xmlns="http://www.w3.org/2000/svg" xmlns:xlink="http://www.w3.org/1999/xlink" version="1.1">
<metadata>
Created by FontForge 20200314 at Fri Jan  1 08:00:00 1904
 By Unknown
Copyright (c) 1988, 1994 Adobe Systems Incorporated.  All Rights Reserved.Clearface is a registered trademark of International Typeface Corporation.
</metadata>
<defs>
<font id="ITCClearface" horiz-adv-x="500" >
  <font-face 
    font-family="ITCClearface"
    font-weight="400"
    font-stretch="normal"
    units-per-em="1000"
    panose-1="2 2 5 0 0 0 0 0 0 0"
    ascent="800"
    descent="-200"
    x-height="477"
    cap-height="700"
    bbox="-70 -250 1020 943"
    underline-thickness="50"
    underline-position="-100"
    unicode-range="U+0020-2122"
  />
<missing-glyph horiz-adv-x="502" 
d="M-1 0h500v500h-500v-500zM9 10v480h480v-480h-480z" />
    <glyph glyph-name=".notdef" horiz-adv-x="502" 
d="M-1 0h500v500h-500v-500zM9 10v480h480v-480h-480z" />
    <glyph glyph-name="space" unicode=" " horiz-adv-x="250" 
 />
    <glyph glyph-name="exclam" unicode="!" horiz-adv-x="278" 
d="M154 165v61q0 62 6.5 129t18.5 155q7 58 10.5 90.5t3.5 55.5q0 25 -14 42t-40 17t-40 -17t-14 -42q0 -23 3.5 -55.5t11.5 -90.5q12 -94 18 -158t6 -126v-61h30zM197 45q0 25 -16 42.5t-42 17.5t-42 -17.5t-16 -42.5t16 -42.5t42 -17.5t42 17.5t16 42.5z" />
    <glyph glyph-name="quotedbl" unicode="&#x22;" horiz-adv-x="333" 
d="M272 634q1 12 1 32q0 28 -8.5 38.5t-25.5 10.5t-25.5 -10.5t-8.5 -38.5q0 -20 1 -32l17 -205v-3q1 -13 4 -20t12 -7t12 6.5t4 20.5v3zM127 634q1 12 1 32q0 28 -8.5 38.5t-25.5 10.5t-25.5 -10.5t-8.5 -38.5q0 -20 1 -32l17 -205v-3q1 -13 4 -20t12 -7t12 6.5t4 20.5v3z
" />
    <glyph glyph-name="numbersign" unicode="#" 
d="M3 274l3 -50h108l-32 -224h56l32 224h135l-32 -224h56l32 224h107l-3 50h-97l21 153h108l-3 50h-98l31 223h-56l-31 -223h-135l31 223h-56l-31 -223h-117l3 -50h107l-22 -153h-117zM333 427l-21 -153h-136l22 153h135z" />
    <glyph glyph-name="dollar" unicode="$" 
d="M224 34q-36 0 -49 15t-21 46v1l-1 4q-8 29 -18.5 43.5t-40.5 14.5q-25 0 -38 -15t-13 -40q0 -16 11 -34t33 -33.5t56.5 -25.5t80.5 -10v-102h42v104q81 8 131.5 63t50.5 137q0 48 -16.5 83.5t-42 59.5t-50.5 38.5t-58 28.5l-15 7v247q25 0 36.5 -12.5t17.5 -39.5
q6 -26 17 -39t42 -13q20 0 32.5 12.5t12.5 37.5q0 26 -16 43t-40.5 26.5t-49.5 13t-52 5.5v78h-42v-81q-67 -11 -113 -54.5t-46 -111.5q0 -65 43 -111t116 -82v-304zM224 437q-42 19 -67 47t-25 72t25 71.5t67 37.5v-228zM266 319q51 -22 83 -60.5t32 -91.5
q0 -52 -31.5 -89.5t-83.5 -42.5v284z" />
    <glyph glyph-name="percent" unicode="%" horiz-adv-x="833" 
d="M203 304q-38 0 -55.5 45.5t-17.5 147.5t17.5 147.5t55.5 45.5t55.5 -45.5t17.5 -147.5t-17.5 -147.5t-55.5 -45.5zM203 279q39 0 67 20.5t44.5 53.5t24 70.5t7.5 73.5t-7.5 73.5t-24 70.5t-44.5 53.5t-67 20.5t-67 -20.5t-44.5 -53.5t-24 -70.5t-7.5 -73.5t7.5 -73.5
t24 -70.5t44.5 -53.5t67 -20.5zM165 -15h49l416 730h-49zM589 396q38 0 55.5 -45.5t17.5 -147.5t-17.5 -147.5t-55.5 -45.5t-55.5 45.5t-17.5 147.5t17.5 147.5t55.5 45.5zM589 421q-39 0 -67 -20.5t-44.5 -53.5t-24 -70.5t-7.5 -73.5t7.5 -73.5t24 -70.5t44.5 -53.5
t67 -20.5t67 20.5t44.5 53.5t24 70.5t7.5 73.5t-7.5 73.5t-24 70.5t-44.5 53.5t-67 20.5z" />
    <glyph glyph-name="ampersand" unicode="&#x26;" horiz-adv-x="722" 
d="M463 383q37 -2 58 -17.5t21 -50.5q0 -16 -6 -39t-16 -47t-22.5 -44.5t-24.5 -32.5q-33 52 -64 103t-61 107t-50 107t-20 83q0 58 27 92.5t78 34.5q18 0 37.5 -6t19.5 -14q0 -4 -3 -13q-4 -9 -6 -18t-2 -24q0 -22 15 -42t36 -20q26 0 40.5 14.5t14.5 37.5q0 56 -44.5 88.5
t-109.5 32.5q-39 0 -72 -14.5t-57 -41t-37 -61t-13 -72.5q0 -50 21 -108q-40 -23 -70 -44.5t-53.5 -48.5t-36.5 -62t-13 -80q0 -93 57.5 -145.5t143.5 -52.5q58 0 102.5 17t84.5 52q32 -34 60 -51.5t65 -17.5q36 0 74 32.5t57 73.5l-26 23q-14 -23 -32.5 -36.5t-43.5 -13.5
q-24 0 -53 18.5t-41 39.5q16 16 30.5 39.5t26 49t20 50.5t12.5 43q10 47 32 62.5t57 16.5v36h-213v-36zM304 38q-73 0 -119 57.5t-46 140.5q0 52 25.5 87t72.5 60q70 -162 173 -299q-17 -19 -47.5 -32.5t-58.5 -13.5z" />
    <glyph glyph-name="quotesingle" unicode="'" horiz-adv-x="222" 
d="M95 429v-3q1 -13 4 -20t12 -7t12 6.5t4 20.5v3l17 205q1 12 1 32q0 28 -8.5 38.5t-25.5 10.5t-25.5 -10.5t-8.5 -38.5q0 -20 1 -32z" />
    <glyph glyph-name="parenleft" unicode="(" horiz-adv-x="333" 
d="M282 -153q-66 90 -90.5 197t-24.5 253q0 134 28.5 245t91.5 195l-12 11q-96 -96 -145 -210t-49 -248q0 -273 190 -459z" />
    <glyph glyph-name="parenright" unicode=")" horiz-adv-x="333" 
d="M51 732q66 -90 90.5 -197t24.5 -253q0 -134 -28.5 -245t-91.5 -195l12 -11q96 96 145 210t49 248q0 274 -190 459z" />
    <glyph glyph-name="asterisk" unicode="*" 
d="M432 426q0 21 -17 30t-54 17q-33 7 -55 14.5t-40 21.5q18 14 40.5 21.5t54.5 14.5q37 8 54 17t17 30q0 16 -9.5 26.5t-22.5 10.5q-18 0 -34.5 -13.5t-41.5 -40.5q-21 -23 -35 -35t-29 -16q0 34 4.5 57t12.5 50q9 31 9 48t-10.5 26.5t-25.5 9.5t-25.5 -9.5t-10.5 -26.5
t9 -48q8 -27 12.5 -50t4.5 -57q-14 4 -29 16.5t-35 34.5q-24 27 -41 40.5t-35 13.5q-13 0 -22.5 -10.5t-9.5 -26.5q0 -21 17 -29.5t55 -17.5q32 -7 54 -14.5t40 -21.5q-18 -14 -40.5 -21.5t-53.5 -14.5q-38 -8 -55 -17t-17 -30q0 -16 9 -26.5t23 -10.5q18 0 34.5 13.5
t41.5 40.5q21 23 35 35t29 16q0 -34 -4.5 -57t-12.5 -50q-9 -31 -9 -48t10.5 -26.5t25.5 -9.5t25.5 9.5t10.5 26.5t-9 48q-8 27 -12.5 50t-4.5 57q14 -4 29 -16.5t35 -34.5q24 -27 41 -40.5t35 -13.5q14 0 23 10.5t9 26.5z" />
    <glyph glyph-name="plus" unicode="+" horiz-adv-x="600" 
d="M273 266h-211v-55h211v-211h55v211h211v55h-211v211h-55v-211z" />
    <glyph glyph-name="comma" unicode="," horiz-adv-x="250" 
d="M51 -164q25 20 48 42t43 49t32.5 56t12.5 57q0 32 -17 53.5t-48 21.5q-25 0 -40.5 -15.5t-15.5 -39.5q0 -27 14.5 -44t41.5 -29q1 -5 1 -15q0 -11 -10.5 -28t-24.5 -34.5t-28.5 -32.5t-25.5 -26z" />
    <glyph glyph-name="hyphen" unicode="-" horiz-adv-x="333" 
d="M288 207v64h-243v-64h243z" />
    <glyph glyph-name="period" unicode="." horiz-adv-x="250" 
d="M187 50q0 28 -17.5 46.5t-44.5 18.5t-44.5 -18.5t-17.5 -46.5t17.5 -46.5t44.5 -18.5t44.5 18.5t17.5 46.5z" />
    <glyph glyph-name="slash" unicode="/" horiz-adv-x="278" 
d="M-19 -15h54l262 730h-54z" />
    <glyph glyph-name="zero" unicode="0" 
d="M250 715q-38 0 -75 -28t-66.5 -79t-46.5 -117.5t-17 -140.5q0 -73 14 -139t41 -117t65.5 -80t84.5 -29q45 0 83.5 34t65.5 89.5t41.5 120t14.5 121.5q0 75 -15 141.5t-42.5 117t-65.5 78.5t-82 28zM250 681q63 0 86 -75.5t23 -255.5q0 -174 -25.5 -252.5t-83.5 -78.5
q-33 0 -54 16.5t-33 54.5t-17 100t-5 160q0 169 28 250t81 81z" />
    <glyph glyph-name="one" unicode="1" 
d="M414 0v36l-104 9v670l-213 -54v-37q5 0 30 1h30q42 0 52.5 -12.5t10.5 -52.5v-512l-125 -12v-36h319z" />
    <glyph glyph-name="two" unicode="2" 
d="M439 188l-34 6q-23 -60 -48.5 -84t-88.5 -24h-173q1 12 12 28.5t28.5 36t37.5 38.5t47 43q11 10 47 41q44 37 70.5 61t49.5 54t37 64t14 72q0 81 -54 136t-146 55q-38 0 -74.5 -12t-65.5 -34.5t-45.5 -53.5t-16.5 -67q0 -30 17.5 -51.5t45.5 -21.5q27 0 38 17.5t11 41.5
q0 17 -5 28.5t-15 24.5q-12 16 -12 24q0 30 29.5 47.5t68.5 17.5q54 0 91 -43t37 -113q0 -59 -36 -114t-104 -126q-100 -104 -177 -227v-53h246q48 0 73.5 -2.5t47.5 -12.5z" />
    <glyph glyph-name="three" unicode="3" 
d="M215 -15q104 0 169 55t65 148q0 75 -46.5 124t-121.5 65v2q64 20 104 60.5t40 102.5q0 40 -17 72.5t-46.5 55t-67 34t-77.5 11.5q-24 0 -55 -7.5t-59.5 -22t-46.5 -37t-18 -50.5q0 -54 55 -54q25 0 37 18t12 41q0 15 -5 37q-2 11 -3 16q29 25 77 25q32 0 54.5 -12.5
t36.5 -33t20.5 -46.5t6.5 -54q0 -62 -33.5 -103.5t-93.5 -41.5q-8 0 -18 3t-18 3q-9 0 -16.5 -5.5t-7.5 -14.5q0 -21 24 -21q10 0 25 4q10 3 14 3q67 0 107.5 -46.5t40.5 -124.5q0 -33 -8 -63.5t-26 -55t-46 -39t-66 -14.5q-28 0 -51.5 8.5t-23.5 19.5q0 3 1 18v18
q0 31 -14.5 57t-46.5 26q-26 0 -38.5 -16t-12.5 -37q0 -60 57.5 -94t136.5 -34z" />
    <glyph glyph-name="four" unicode="4" 
d="M245 715q-19 -85 -41 -151t-49 -121.5t-60 -107t-81 -118.5v-55h266v-119l-67 -7v-36h215v36l-58 7v119h95v52h-95v391h-2l-88 -141v-250h-227q94 120 169.5 243t133.5 256v2h-111z" />
    <glyph glyph-name="five" unicode="5" 
d="M404 614l24 110h-42q-11 -15 -24.5 -19.5t-41.5 -4.5h-233l-22 -357l26 -20q1 2 4 5q29 35 56 53t72 18q59 0 97 -46.5t38 -130.5q0 -37 -8.5 -73t-26 -65.5t-44 -47t-60.5 -17.5q-23 0 -43.5 6.5t-34.5 22.5v1l-1 1q0 2 2 9q4 18 4 31q0 30 -16 48.5t-44 18.5
q-23 0 -37.5 -16t-14.5 -39q0 -29 15 -51.5t40 -37t55 -21.5t59 -7q55 0 101.5 19t80 53t51.5 78.5t18 93.5q0 39 -11.5 78t-35 72t-61 52.5t-87.5 19.5q-47 0 -73 -11t-65 -41q-1 0 -9 -6l12 221h280z" />
    <glyph glyph-name="six" unicode="6" 
d="M263 -15q45 0 82 20.5t62.5 55.5t38.5 79t13 90q0 41 -11 80t-33 70t-55.5 49.5t-76.5 18.5q-48 0 -82.5 -25t-57.5 -69h-2v31q-1 25 -1 30q0 48 11 95.5t31.5 86t49 61.5t60.5 23q17 0 23 -6t6 -23q0 -31 17.5 -51t45.5 -20q18 0 29.5 12.5t11.5 33.5q0 37 -31.5 62.5
t-80.5 25.5q-57 0 -106.5 -29.5t-86 -84t-56.5 -128.5t-20 -160q0 -57 11.5 -114t37 -106t68.5 -78.5t102 -29.5zM256 19q-32 0 -54.5 18t-35 47t-18 63.5t-5.5 71.5q0 72 30 124.5t83 52.5q54 0 83.5 -49t29.5 -128q0 -40 -5.5 -75t-18 -63.5t-35 -45t-54.5 -16.5z" />
    <glyph glyph-name="seven" unicode="7" 
d="M475 700h-310q-53 0 -76 15l-46 -190l32 -5q23 58 47 76t73 18h212q-20 -36 -66 -112q-43 -70 -71.5 -119t-54.5 -104.5t-42 -112t-16 -108.5q0 -34 16 -53.5t41 -19.5q21 0 34.5 7.5t20 19t9 24t2.5 25.5q0 18 -2 41t-2 42q0 62 12.5 120t33.5 109.5t46 99.5t65 116
q30 53 42 74v37z" />
    <glyph glyph-name="eight" unicode="8" 
d="M250 19q-63 0 -103.5 44t-40.5 113t25.5 103.5t81.5 67.5q8 -5 30 -16q35 -20 58.5 -34.5t45 -34.5t34.5 -46.5t13 -59.5q0 -59 -41 -98t-103 -39zM248 681q55 0 86.5 -34t31.5 -95q0 -41 -16.5 -75t-52.5 -60l-18 9q-33 16 -55 28.5t-42 29.5t-32 40t-12 53q0 44 30 74
t80 30zM250 -15q94 0 152.5 56.5t58.5 154.5q0 61 -37 112.5t-98 90.5q45 26 76 69.5t31 91.5q0 67 -53 111q-25 21 -58 32.5t-70 11.5q-79 0 -130 -46.5t-51 -134.5q0 -50 30.5 -91.5t78.5 -73.5q-67 -36 -104 -82t-37 -117q0 -40 15.5 -74t44.5 -59q59 -52 151 -52z" />
    <glyph glyph-name="nine" unicode="9" 
d="M229 715q-45 0 -82 -22t-62 -58.5t-38.5 -79.5t-13.5 -85q0 -41 11 -80t33 -70t55.5 -49.5t76.5 -18.5q48 0 82.5 25t57.5 69h2q0 -12 1 -28v-20q0 -41 -8.5 -89t-26.5 -91t-47.5 -71t-69.5 -28q-15 0 -22 8.5t-7 32.5q0 22 -17 40.5t-38 18.5q-19 0 -34 -12.5t-15 -33.5
q0 -37 31.5 -62.5t80.5 -25.5q57 0 106.5 29.5t86 83t56.5 125.5t20 155q0 62 -11.5 120.5t-37 108t-68 79t-102.5 29.5zM236 681q32 0 54.5 -17t35 -45t18 -63t5.5 -75q0 -80 -29 -128.5t-84 -48.5q-53 0 -83 52.5t-30 124.5q0 36 5.5 70.5t18.5 64t35 47.5t54 18z" />
    <glyph glyph-name="colon" unicode=":" horiz-adv-x="250" 
d="M187 412q0 28 -17.5 46.5t-44.5 18.5t-44.5 -18.5t-17.5 -46.5t17.5 -46.5t44.5 -18.5t44.5 18.5t17.5 46.5zM187 50q0 28 -17.5 46.5t-44.5 18.5t-44.5 -18.5t-17.5 -46.5t17.5 -46.5t44.5 -18.5t44.5 18.5t17.5 46.5z" />
    <glyph glyph-name="semicolon" unicode=";" horiz-adv-x="250" 
d="M51 -164q25 20 48 42t43 49t32.5 56t12.5 57q0 32 -17 53.5t-48 21.5q-25 0 -40.5 -15.5t-15.5 -39.5q0 -27 14.5 -44t41.5 -29q1 -5 1 -15q0 -11 -10.5 -28t-24.5 -34.5t-28.5 -32.5t-25.5 -26zM63 412q0 -28 17.5 -46.5t44.5 -18.5t44.5 18.5t17.5 46.5t-17.5 46.5
t-44.5 18.5t-44.5 -18.5t-17.5 -46.5z" />
    <glyph glyph-name="less" unicode="&#x3c;" horiz-adv-x="600" 
d="M134 238l398 182v57l-464 -212v-53l464 -212v57z" />
    <glyph glyph-name="equal" unicode="=" horiz-adv-x="600" 
d="M539 359h-477v-55h477v55zM539 173h-477v-55h477v55z" />
    <glyph glyph-name="greater" unicode="&#x3e;" horiz-adv-x="600" 
d="M68 57v-57l464 212v53l-464 212v-57l398 -182z" />
    <glyph glyph-name="question" unicode="?" horiz-adv-x="389" 
d="M164 170v134q75 22 123 77.5t48 129.5q0 41 -16.5 78.5t-44.5 65.5t-63.5 44t-72.5 16q-83 0 -83 -60q0 -22 13.5 -36t37.5 -14q23 0 37 13t28 35q12 19 18 19q32 0 59 -36.5t27 -83.5q0 -60 -40.5 -104.5t-102.5 -57.5v-220h32zM204 45q0 25 -16 42.5t-42 17.5
t-42 -17.5t-16 -42.5t16 -42.5t42 -17.5t42 17.5t16 42.5z" />
    <glyph glyph-name="at" unicode="@" horiz-adv-x="800" 
d="M392 195q-71 0 -71 88q0 47 15 86.5t38 67t49 42t48 14.5q47 0 47 -68q0 -35 -10 -75.5t-27.5 -75.5t-40.5 -57t-48 -22zM545 523l-11 -42q-15 29 -30.5 42.5t-45.5 13.5q-44 0 -82.5 -25t-66.5 -65t-43.5 -84.5t-15.5 -79.5q0 -43 11.5 -70.5t28 -40t32 -16.5t29.5 -4
q33 0 65.5 20t56.5 54h2q0 -7 5.5 -19.5t17.5 -25t30 -21.5t42 -9q45 0 82.5 23.5t63 61.5t38.5 82.5t13 84.5q0 61 -24.5 117t-71 100.5t-111 69.5t-141.5 25q-93 0 -166 -32.5t-122 -87.5t-73.5 -123t-24.5 -138q0 -55 23.5 -116t72.5 -114t125 -86t176 -33
q60 0 108.5 14.5t114.5 44.5l-14 28q-57 -26 -102 -38.5t-108 -12.5q-70 0 -128 24.5t-99.5 67.5t-63.5 97.5t-22 112.5q0 85 23.5 153.5t65.5 115.5t97 71.5t117 24.5q72 0 130.5 -25.5t99 -68.5t61.5 -93.5t21 -98.5q0 -36 -9.5 -74.5t-28 -71t-46 -52t-61.5 -19.5
q-24 0 -33 14t-9 33q0 11 2.5 25.5t6.5 27.5l64 238h-72z" />
    <glyph glyph-name="A" unicode="A" horiz-adv-x="556" 
d="M567 0v36l-52 6l-205 663l-113 -5l28 -60l-170 -541q-10 -33 -25.5 -45t-51.5 -18v-36h193v36q-38 1 -55 12.5t-17 39.5q0 16 5 32l31 104h230l53 -182l-59 -6v-36h208zM149 263l100 330h2l101 -330h-203z" />
    <glyph glyph-name="B" unicode="B" horiz-adv-x="611" 
d="M195 662q9 0 25 1t25 1q98 0 144 -28.5t46 -102.5q0 -43 -17.5 -70.5t-46.5 -41t-63.5 -18t-78.5 -4.5h-34v263zM97 43l-60 -7v-36h284q118 0 178 48t60 139q0 79 -49 127t-129 66v2q66 13 108 51t42 105q0 30 -8.5 57t-32.5 51t-72 39t-122 15h-259v-36l60 -7v-614z
M193 360q19 3 67 3q89 0 141 -42t52 -122q0 -90 -48 -126.5t-145 -36.5q-35 0 -67 6v318z" />
    <glyph glyph-name="C" unicode="C" horiz-adv-x="611" 
d="M535 206q-27 -71 -71 -113.5t-110 -42.5q-38 0 -73.5 19t-65 59.5t-46.5 106.5t-17 156q0 144 44 214t120 70q39 0 69.5 -15.5t54.5 -41.5t40 -53.5t38 -70.5l5 -9l34 8l-47 222q-19 -12 -33 -17.5t-31 -5.5q-14 0 -42 9l-9 3q-33 11 -76 11q-61 0 -112 -32t-87 -87
t-55 -124.5t-19 -141.5q0 -69 18 -131.5t54 -110.5t87.5 -75.5t116.5 -27.5q90 0 153.5 60t90.5 152z" />
    <glyph glyph-name="D" unicode="D" horiz-adv-x="667" 
d="M199 663h34q29 1 50 1q56 0 98 -15t72 -50t46 -96.5t16 -152.5q0 -90 -17.5 -151.5t-48.5 -97t-72.5 -50.5t-93.5 -15q-40 0 -84 3v624zM103 43l-60 -7v-36h267q75 0 134 31t98 82t59 113t20 124q0 68 -20 130.5t-60.5 112t-103.5 78.5t-146 29h-248v-36l60 -7v-614z" />
    <glyph glyph-name="E" unicode="E" horiz-adv-x="611" 
d="M102 43l-60 -7v-36h348q44 0 70 -3t55 -12l54 226l-35 4q-40 -93 -99.5 -136t-155.5 -43q-55 0 -83 5v315h48q51 0 73 -21t37 -90h33v258h-33q-15 -68 -37 -89.5t-73 -21.5h-46v267q28 5 83 5q46 0 80.5 -8t61 -26.5t49.5 -49t46 -78.5l31 6l-44 207q-29 -9 -55 -12
t-70 -3h-338v-36l60 -7v-614z" />
    <glyph glyph-name="F" unicode="F" horiz-adv-x="556" 
d="M260 0v36l-60 7v299h48q51 0 73 -21t37 -90h33v258h-33q-15 -68 -37 -89.5t-73 -21.5h-46v284q10 0 32 1q23 1 34 1q86 0 144.5 -43.5t98.5 -133.5l34 5l-49 223q-29 -9 -55 -12t-70 -3h-327v-36l60 -7v-614l-60 -7v-36h216z" />
    <glyph glyph-name="G" unicode="G" horiz-adv-x="667" 
d="M433 273v-36l54 -7v-150q0 -26 -31 -40.5t-73 -14.5q-39 0 -79 22t-73.5 66.5t-54 113t-20.5 157.5q0 135 48 213t141 78q40 0 70 -13.5t51.5 -36.5t36 -48t35.5 -67q3 -6 8 -17l32 7l-47 215q-19 -12 -33 -17.5t-31 -5.5q-14 0 -42 9l-9 3q-35 11 -76 11
q-57 0 -109.5 -27t-93.5 -78t-64 -124t-23 -161q0 -67 21.5 -128.5t63 -109.5t99 -75t126.5 -27q23 0 57 8t81 22q29 9 39.5 11.5t15.5 2.5h35q-5 35 -5 85v116l44 7v36h-194z" />
    <glyph glyph-name="H" unicode="H" horiz-adv-x="722" 
d="M104 43l-60 -7v-36h216v36l-60 7v310h322v-310l-60 -7v-36h216v36l-60 7v614l60 7v36h-216v-36l60 -7v-265h-322v265l60 7v36h-216v-36l60 -7v-614z" />
    <glyph glyph-name="I" unicode="I" horiz-adv-x="333" 
d="M289 0v36l-75 7v614l75 7v36h-246v-36l75 -7v-614l-75 -7v-36h246z" />
    <glyph glyph-name="J" unicode="J" horiz-adv-x="389" 
d="M125 700v-36l60 -7v-507q0 -43 -13 -74.5t-30 -31.5q-3 0 -12 12q-14 17 -29.5 28.5t-39.5 11.5q-52 0 -52 -58q0 -23 22 -38t43 -15q42 0 80 21.5t66.5 58.5t44.5 82t16 90v420l60 7v36h-216z" />
    <glyph glyph-name="K" unicode="K" horiz-adv-x="667" 
d="M388 469l124 150q19 23 50 33t62 12v36h-241v-36q6 0 17.5 -2t22.5 -5t19 -9.5t8 -15.5q0 -12 -9 -26t-30 -40q-2 -2 -10 -12l-194 -248h-4v351l60 7v36h-216v-36l60 -7v-614l-60 -7v-36h216v36l-60 7v198l123 149l171 -347l-68 -7v-36h229v36l-54 7z" />
    <glyph glyph-name="L" unicode="L" horiz-adv-x="556" 
d="M104 43l-60 -7v-36h328q44 0 70 -3t55 -12l49 223l-32 5q-34 -95 -91 -136t-158 -41q-28 0 -65 5v616l60 7v36h-216v-36l60 -7v-614z" />
    <glyph glyph-name="M" unicode="M" horiz-adv-x="778" 
d="M350 130h24l195 487h2l14 -574l-60 -7v-36h218v36l-60 7l-19 614l61 7v36h-167l-170 -426l-168 426h-167v-36l59 -7l-10 -479q-1 -46 -4.5 -70.5t-11.5 -38t-22.5 -20t-44.5 -13.5v-36h210v36q-39 4 -60.5 21t-21.5 58l10 496h2z" />
    <glyph glyph-name="N" unicode="N" horiz-adv-x="667" 
d="M529 0h38v552q0 52 14 80.5t61 31.5v36h-194v-36q48 -3 61.5 -25.5t13.5 -75.5v-391h-2l-343 528h-150v-36q46 0 64.5 -18.5t18.5 -47.5v-474q0 -13 -4 -28t-13.5 -28.5t-25.5 -22.5t-40 -9v-36h210v36q-45 0 -64 30t-19 73v424h2z" />
    <glyph glyph-name="O" unicode="O" horiz-adv-x="667" 
d="M333 715q-62 0 -116 -31t-93 -84.5t-60 -118.5t-21 -131q0 -65 21 -130.5t60 -118.5t93 -84.5t116 -31.5t116 31.5t93 84.5t60 118.5t21 130.5q0 66 -21 131t-60 118.5t-93 84.5t-116 31zM333 675q57 0 94 -29t56.5 -76.5t26.5 -102.5t7 -117t-7 -117t-26 -102.5
t-56.5 -76.5t-94.5 -29t-94 29t-56.5 76.5t-26.5 102.5t-7 117t7 117t26 102.5t56.5 76.5t94.5 29z" />
    <glyph glyph-name="P" unicode="P" horiz-adv-x="556" 
d="M100 43l-60 -7v-36h216v36l-60 7v282q35 -3 68 -3q131 0 197 46t66 146q0 92 -58.5 139t-150.5 47h-278v-36l60 -7v-614zM196 659q13 3 38.5 4t57.5 1q63 0 101 -40.5t38 -112.5q0 -67 -43.5 -110t-119.5 -43q-47 0 -72 5v296z" />
    <glyph glyph-name="Q" unicode="Q" horiz-adv-x="667" 
d="M618 -48q-17 -5 -45 -5t-47.5 22t-40.5 60q-3 6 -5 9q66 50 104.5 136t38.5 176q0 66 -21 131t-60 118.5t-93 84.5t-116 31t-116 -31t-93 -84.5t-60 -118.5t-21 -131q0 -65 21 -130.5t60 -118.5t93 -84.5t116 -31.5q39 0 74 13q18 -57 48.5 -86.5t79.5 -29.5
q33 0 58 14.5t25 32.5v23zM313 118l5 -2q20 -7 34.5 -19t31.5 -46l6 -12q-24 -14 -57 -14q-57 0 -94 29t-56.5 76.5t-26.5 102.5t-7 117t7 117t26 102.5t56.5 76.5t94.5 29t94 -29t56.5 -76.5t26.5 -102.5t7 -117q0 -100 -18.5 -162.5t-53.5 -104.5l-14 16q-24 28 -51 39.5
t-62 11.5z" />
    <glyph glyph-name="R" unicode="R" horiz-adv-x="611" 
d="M99 43l-60 -7v-36h216v36l-60 7v294q28 -5 54 -5h56l157 -332h132v36l-50 7l-145 303q70 21 107 59.5t37 112.5q0 30 -10 60.5t-37.5 58.5t-78.5 45.5t-128 17.5h-250v-36l60 -7v-614zM197 659q14 3 33 4t52 1q81 0 123 -37.5t42 -118.5q0 -39 -18 -67t-45.5 -43.5
t-57.5 -22.5t-58 -7q-46 0 -71 5v286z" />
    <glyph glyph-name="S" unicode="S" horiz-adv-x="556" 
d="M80 -3q5 2 7 4q18 9 32.5 14t32.5 5q17 0 30.5 -4t33.5 -13q21 -9 37 -13.5t37 -4.5q52 0 93 17t68.5 46t42 65t14.5 74q0 51 -16.5 87t-44.5 60t-58.5 39t-79.5 34q-43 18 -68.5 30t-48 29.5t-35.5 43t-13 59.5q0 49 29.5 77.5t74.5 28.5q38 0 68.5 -15t53 -39.5
t38.5 -54t32 -67.5l35 5l-40 203q-20 -11 -34 -16.5t-29 -5.5q-8 0 -29 9q-10 4 -16 6q-39 15 -67 15q-81 0 -133.5 -53.5t-52.5 -135.5q0 -44 15.5 -77t41.5 -55.5t56 -38t76 -35.5q42 -18 69 -32t50 -32.5t36.5 -45.5t13.5 -62q0 -55 -42 -89t-92 -34q-41 0 -76 17.5
t-62.5 46.5t-48 62.5t-37.5 70.5l-32 -7z" />
    <glyph glyph-name="T" unicode="T" horiz-adv-x="556" 
d="M386 0v36l-60 7v621q37 0 66.5 -12.5t51 -35t38 -51t32.5 -66.5l28 4l-37 212q-29 -9 -55 -12t-70 -3h-204q-44 0 -70 3t-55 12l-37 -212l28 -4q17 39 33 67t37.5 50.5t51 35t66.5 12.5v-621l-60 -7v-36h216z" />
    <glyph glyph-name="U" unicode="U" horiz-adv-x="611" 
d="M86 194q0 -102 59.5 -155.5t159.5 -53.5q104 0 161.5 55t57.5 154v369q0 53 13.5 75.5t61.5 25.5v36h-202v-36q47 0 65 -26t18 -77v-363q0 -88 -40.5 -130.5t-108.5 -42.5q-77 0 -113 43.5t-36 129.5v459l60 7v36h-216v-36l60 -7v-463z" />
    <glyph glyph-name="V" unicode="V" horiz-adv-x="556" 
d="M-6 664l47 -7l204 -672h101l-22 61l162 524q13 41 32.5 67.5t57.5 26.5v36h-194v-36q25 0 47 -15t22 -37q0 -19 -8 -48.5t-24 -77.5q-5 -14 -9 -27l-110 -351h-2l-156 549l59 7v36h-207v-36z" />
    <glyph glyph-name="W" unicode="W" horiz-adv-x="833" 
d="M-4 664l48 -7l172 -672h100l-23 70l126 411h2l131 -481h98l-20 70l146 536q9 34 26 50.5t45 22.5v36h-187v-36q23 0 46 -17.5t23 -34.5q0 -36 -6.5 -66.5t-16.5 -62.5q-5 -16 -7 -23l-89 -338h-2l-160 586l-89 -29l40 -151l-125 -409h-2l-129 538l58 7v36h-205v-36z" />
    <glyph glyph-name="X" unicode="X" horiz-adv-x="611" 
d="M374 36v-36h225v36l-52 7l-202 346l123 212q31 53 103 63v36h-209v-36q26 0 44.5 -7t18.5 -31q0 -15 -6 -29t-22 -40q-12 -20 -19 -32l-56 -100l-135 232l57 7v36h-224v-36l60 -7l177 -304l-128 -231q-21 -37 -50 -61t-66 -25v-36h215v36q-32 0 -49.5 10t-17.5 36
q0 16 16 44l106 189l153 -272z" />
    <glyph glyph-name="Y" unicode="Y" horiz-adv-x="556" 
d="M384 0v36l-60 7v242l153 310q16 33 35 48t52 21v36h-203v-36l5 -1q30 -5 47 -13.5t17 -31.5q0 -14 -10 -41t-22 -50l-93 -188l-157 318l61 7v36h-217v-36l49 -7l187 -371v-243l-61 -7v-36h217z" />
    <glyph glyph-name="Z" unicode="Z" horiz-adv-x="556" 
d="M494 666v34h-289q-30 0 -51.5 1.5t-40.5 6.5l-44 -194l31 -8q37 85 87 121.5t146 36.5q12 0 33 -3q15 -2 21 -2l-345 -631v-28h280q44 0 70 -3t55 -12l49 223l-32 5q-34 -95 -91 -136t-158 -41q-32 0 -60 5z" />
    <glyph glyph-name="bracketleft" unicode="[" horiz-adv-x="333" 
d="M106 -154h169v23q-3 1 -11 2q-17 2 -31.5 5.5t-26.5 12t-20 25.5t-8 43v656q0 34 2.5 51.5t11.5 26.5t26.5 13t52.5 6v23h-165v-887z" />
    <glyph glyph-name="backslash" unicode="\" horiz-adv-x="278" 
d="M35 715h-54l262 -730h54z" />
    <glyph glyph-name="bracketright" unicode="]" horiz-adv-x="333" 
d="M58 733v-23q3 -1 11 -2q17 -2 31.5 -5.5t27 -12t20 -25.5t7.5 -43v-656q0 -34 -2.5 -51.5t-11.5 -26.5t-26.5 -13t-52.5 -6v-23h165v887h-169z" />
    <glyph glyph-name="asciicircum" unicode="^" horiz-adv-x="600" 
d="M153 335l147 295l147 -295h62l-183 365h-52l-183 -365h62z" />
    <glyph glyph-name="underscore" unicode="_" 
d="M500 -125v50h-500v-50h500z" />
    <glyph glyph-name="grave" unicode="`" horiz-adv-x="278" 
d="M215 543l-142 143q-12 13 -25 20.5t-28 7.5q-30 0 -30 -33q0 -15 10 -25t25 -19l152 -94h38z" />
    <glyph glyph-name="a" unicode="a" horiz-adv-x="444" 
d="M366 319q0 49 -23.5 83.5t-59 54t-71.5 27.5t-64 8q-50 0 -70 -12.5t-20 -44.5q0 -21 12 -33.5t31 -12.5q26 0 37.5 10.5t20.5 30.5q7 13 12.5 19.5t16.5 6.5q14 0 30.5 -7t32 -23t25.5 -43t10 -66q-45 -10 -90 -27t-84.5 -43t-64.5 -62t-25 -81q0 -52 37 -85.5t89 -33.5
q37 0 75.5 18.5t64.5 47.5q2 -27 19 -46.5t42 -19.5q30 0 52.5 15t41.5 41l-21 20q-6 -7 -14 -12.5t-18 -5.5q-11 0 -17.5 6t-6.5 22v248zM285 96q-19 -24 -43 -38.5t-52 -14.5q-37 0 -59 22.5t-22 60.5q0 35 17 62.5t44 46t56.5 29.5t58.5 16v-184z" />
    <glyph glyph-name="b" unicode="b" 
d="M17 702v-30q13 4 25 4q16 0 23 -18.5t7 -68.5v-379q0 -80 -8.5 -133t-20.5 -82l17 -10l61 69q22 -33 57.5 -51t72.5 -18q47 0 85.5 23.5t65.5 63.5t41 88.5t14 97.5q0 106 -51.5 170t-135.5 64q-30 0 -59 -17.5t-58 -47.5v260q0 20 2 54v7zM151 376q14 20 39 34.5
t49 14.5q63 0 100 -62t37 -157q0 -33 -7 -65.5t-22.5 -59.5t-40.5 -43.5t-60 -16.5q-33 0 -63.5 27t-31.5 60v268z" />
    <glyph glyph-name="c" unicode="c" horiz-adv-x="444" 
d="M399 130q-27 -39 -55 -58.5t-71 -19.5q-74 0 -113.5 65t-39.5 162q0 34 9.5 66t27 57t40 39.5t47.5 14.5q22 0 30.5 -9.5t15.5 -29.5q2 -7 3 -9q9 -24 19.5 -36t33.5 -12q24 0 38 13.5t14 36.5q0 41 -36.5 61.5t-94.5 20.5q-54 0 -96.5 -23t-72 -62.5t-44.5 -90
t-15 -105.5q0 -43 14 -84t40 -73t63.5 -50.5t83.5 -18.5q62 0 106.5 33.5t80.5 92.5z" />
    <glyph glyph-name="d" unicode="d" 
d="M421 687q0 20 2 54v7l-137 -45v-30q13 4 39 4q16 0 16 -26v-191q-28 17 -51.5 24.5t-56.5 7.5q-38 0 -73.5 -20t-62.5 -57t-42.5 -86t-15.5 -106q0 -44 12.5 -86.5t35 -77t54 -54.5t67.5 -20q42 0 73 18.5t67 53.5l28 -72l96 35v30q-32 0 -41.5 14.5t-9.5 46.5v576z
M340 102q-12 -17 -39.5 -29.5t-50.5 -12.5q-62 0 -96 64t-34 154q0 29 6 60t20 59.5t38 46.5t59 18q17 0 34.5 -7t31.5 -19q31 -26 31 -56v-278z" />
    <glyph glyph-name="e" unicode="e" horiz-adv-x="444" 
d="M401 300q-6 40 -18.5 74t-33.5 60.5t-52 42t-71 15.5q-37 0 -70.5 -19.5t-59 -55.5t-40.5 -87t-15 -111q0 -45 12.5 -86.5t37 -75t61.5 -53t84 -19.5q60 0 105 36t71 94l-25 17q-26 -40 -54 -60t-67 -20q-33 0 -59 15.5t-43 40.5t-26.5 54t-10.5 57zM123 265q-1 10 -1 51
q0 25 5.5 49t18.5 45t34.5 33.5t51.5 12.5q39 0 58 -28t19 -62q0 -31 -12.5 -43.5t-40.5 -20.5z" />
    <glyph glyph-name="f" unicode="f" horiz-adv-x="278" 
d="M164 477v36q-1 31 -1 51q0 47 16.5 82t39.5 35q8 0 17 -10l4 -4q7 -6 17 -10t25 -4q18 0 31 11.5t13 29.5q0 27 -15.5 40.5t-43.5 13.5q-32 0 -64.5 -24.5t-59 -65t-42.5 -88.5t-17 -93h-56v-44h55v-396l-50 -7v-30h181v30l-50 7v396h98v44h-98z" />
    <glyph glyph-name="g" unicode="g" 
d="M234 -143q-24 0 -45 2.5t-38.5 10t-28.5 22.5t-11 39q0 10 5.5 22t14.5 23t17.5 18.5t14.5 8.5q88 0 131.5 -3t74.5 -14q18 -6 29.5 -18t11.5 -28q0 -26 -14 -42.5t-38.5 -25.5t-55 -12t-68.5 -3zM136 322q0 54 28 94t82 40q52 0 81 -36t29 -98q0 -25 -6.5 -49.5t-20 -45
t-34.5 -33t-49 -12.5q-27 0 -48.5 13.5t-35 35t-20 45.5t-6.5 46zM226 -179q129 0 190 35.5t61 98.5t-50 93.5t-143 30.5q-81 0 -114.5 7t-33.5 22q0 8 10.5 17t27.5 20q10 7 12 9q26 -8 56 -8q41 0 76.5 13t62.5 37t41.5 57t14.5 72q0 57 -35 99.5t-91 61.5q4 4 13 12
q12 13 21.5 19t21.5 6q11 -12 25.5 -21t29.5 -9q53 0 53 50q0 18 -15 31.5t-38 13.5q-37 0 -68.5 -22.5t-71.5 -62.5l-11 -11h-34q-37 0 -70.5 -13t-58.5 -36.5t-39 -55t-14 -68.5q0 -49 24 -85.5t68 -61.5q-4 -4 -22 -17q-37 -29 -59 -51t-22 -43q0 -24 15.5 -33t43.5 -15
q12 -2 14 -3q-4 -3 -18 -11q-33 -20 -51 -37t-18 -42q0 -32 18.5 -52.5t47.5 -30.5t61 -13t69 -3z" />
    <glyph glyph-name="h" unicode="h" horiz-adv-x="556" 
d="M527 0v30l-50 7v297q0 66 -44 112t-112 46q-39 0 -75.5 -18t-81.5 -50v263q0 20 2 54v7l-138 -46v-30q13 4 25 4q16 0 23 -18.5t7 -68.5v-552l-50 -7v-30h181v30l-50 7v338q64 59 128 59q49 0 76.5 -30t27.5 -92v-275l-50 -7v-30h181z" />
    <glyph glyph-name="i" unicode="i" horiz-adv-x="278" 
d="M230 0v30l-50 7v394q0 20 2 54v7l-138 -46v-30q13 4 25 4q16 0 23 -18.5t7 -68.5v-296l-50 -7v-30h181zM140 715q-25 0 -40 -15t-15 -38t15 -38t40 -15t40 15t15 38t-15 38t-40 15z" />
    <glyph glyph-name="j" unicode="j" horiz-adv-x="278" 
d="M54 446v-30q13 4 25 4q16 0 23 -18.5t7 -68.5v-335q0 -46 -8 -78t-28 -32q-8 0 -20 10q-3 3 -5 4q-18 14 -38 14q-22 0 -34 -15t-12 -35t15.5 -32.5t41.5 -12.5q29 0 59 20.5t55.5 56t40 78.5t14.5 86v369q0 20 2 54v7zM150 715q-25 0 -40 -15t-15 -38t15 -38t40 -15
t40 15t15 38t-15 38t-40 15z" />
    <glyph glyph-name="k" unicode="k" 
d="M168 687q0 20 2 54v7l-138 -46v-30q13 4 26 4q12 0 20.5 -10t8.5 -26v-603l-50 -7v-30h177v30l-50 7v83q0 27 20 65t54 81l125 -229l-50 -7v-30h180v30l-41 7l-166 299q3 4 11 14q19 25 34.5 40t30.5 15q5 0 17 -3q19 -5 31 -5q20 0 34 14t14 34q0 47 -50 47
q-34 0 -64 -28t-64 -73q-5 -7 -12 -16q-42 -54 -98 -147h-2v459z" />
    <glyph glyph-name="l" unicode="l" horiz-adv-x="278" 
d="M44 702v-30q13 4 25 4q16 0 23 -18.5t7 -68.5v-552l-50 -7v-30h181v30l-50 7v650q0 20 2 54v7z" />
    <glyph glyph-name="m" unicode="m" horiz-adv-x="833" 
d="M89 37l-50 -7v-30h181v30l-50 7v332q2 1 7 6q33 27 58.5 43t52.5 16q40 0 67 -29.5t27 -66.5v-301l-50 -7v-30h181v30l-50 7v340q29 27 55 42t55 15q43 0 72.5 -27t29.5 -87v-283l-50 -7v-30h181v30l-50 7v275q0 85 -39.5 132.5t-110.5 47.5q-43 0 -75.5 -18.5
t-76.5 -56.5l-8 -7q-20 37 -50.5 59.5t-73.5 22.5q-47 0 -74 -15t-57 -44q-16 -16 -24 -22q-15 44 -36 81l-95 -36v-26q30 0 41.5 -12t11.5 -50v-331z" />
    <glyph glyph-name="n" unicode="n" horiz-adv-x="556" 
d="M218 0v30l-50 7v328q30 35 58 52t66 17q54 0 79.5 -33t25.5 -91v-273l-50 -7v-30h181v30l-50 7v277q0 90 -42 134t-116 44q-47 0 -74 -14.5t-61 -46.5q-11 -10 -17 -15q-4 16 -11.5 33.5t-19.5 42.5v0l-103 -42v-26q30 0 41.5 -12t11.5 -50v-325l-50 -7v-30h181z" />
    <glyph glyph-name="o" unicode="o" 
d="M250 456q33 0 56.5 -17t38 -46.5t21 -69t6.5 -85.5t-6.5 -85.5t-21 -69t-38 -46t-56.5 -16.5t-56.5 16.5t-38 46.5t-21 69t-6.5 85t6.5 85.5t21 69t38 46.5t56.5 17zM36 238q0 -45 15 -90t43.5 -82t68.5 -59t87 -22t87 22t68.5 59t43.5 82t15 90t-15 90t-43.5 82.5
t-68.5 59.5t-87 22t-87 -22t-68.5 -59.5t-43.5 -82.5t-15 -90z" />
    <glyph glyph-name="p" unicode="p" 
d="M207 -169v30l-50 7v148q24 -13 48.5 -18.5t59.5 -5.5t69.5 18t63 52t45.5 85t17 114q0 43 -11.5 84t-33 74.5t-54 53t-72.5 19.5q-37 0 -69 -20.5t-63 -55.5q-13 39 -32 76l-102 -43v-30q13 4 25 4q16 0 23 -18.5t7 -68.5v-468l-50 -7v-30h179zM159 369q17 24 39 40
t53 16q35 0 60 -19t40 -51t21.5 -69t6.5 -73q0 -37 -6.5 -70.5t-21 -61t-38.5 -43.5t-58 -16q-16 0 -33 6.5t-31 17t-23 22t-9 21.5v280z" />
    <glyph glyph-name="q" unicode="q" 
d="M423 339q0 35 8.5 75.5t24.5 61.5l-15 16l-65 -62q-28 31 -57.5 46.5t-67.5 15.5q-43 0 -80.5 -23t-65 -62t-43 -88t-15.5 -99q0 -47 10.5 -89t31.5 -75t53.5 -52t75.5 -19q22 0 61.5 16t60.5 39v-172l-50 -7v-30h183v30l-50 7v471zM342 82q-19 -17 -41.5 -28t-45.5 -11
q-32 0 -56.5 16t-40 43.5t-23 62t-7.5 72.5q0 102 34 160.5t88 58.5q32 0 59.5 -22.5t32.5 -56.5v-295z" />
    <glyph glyph-name="r" unicode="r" horiz-adv-x="389" 
d="M237 0v30l-50 7v145q0 28 7 65t19 71.5t27 56.5t31 22q7 0 19 -5q18 -7 32 -7q17 0 34.5 17.5t17.5 34.5q0 25 -15 40t-41 15q-25 0 -48.5 -18t-41.5 -45.5t-30 -57.5t-16 -53h-2q-1 45 -13.5 92.5t-26.5 81.5l-99 -42v-30q3 0 8 2q9 2 13 2q19 0 31.5 -35.5t12.5 -86.5
v-265l-50 -7v-30h181z" />
    <glyph glyph-name="s" unicode="s" horiz-adv-x="389" 
d="M349 132q0 37 -11.5 63.5t-30.5 44.5t-40 29.5t-54 26.5q-48 22 -71 40.5t-23 51.5q0 30 19 49t50 19q11 0 18 -7t16 -23q11 -18 21 -27.5t27 -9.5q24 0 36.5 11t12.5 36t-22.5 40.5t-64.5 15.5q-85 0 -132.5 -37t-47.5 -101q0 -28 10 -50t27 -37.5t36 -26.5t50 -27
q54 -27 80.5 -50t26.5 -63q0 -37 -30.5 -58t-73.5 -21q-24 0 -34 12.5t-18 38.5t-18 39t-36 13q-47 0 -47 -52q0 -37 45.5 -62t105.5 -25q78 0 125.5 43t47.5 104z" />
    <glyph glyph-name="t" unicode="t" horiz-adv-x="333" 
d="M170 477v197l-81 -66v-131h-64v-44h62v-305q0 -143 100 -143q43 0 74 16t68 49l-15 31q-23 -17 -42 -27.5t-36 -10.5q-37 0 -52.5 17.5t-15.5 59.5v313h131v44h-129z" />
    <glyph glyph-name="u" unicode="u" horiz-adv-x="556" 
d="M28 446v-30q13 4 25 4q16 0 23 -18.5t7 -68.5v-206q0 -70 39 -106t96 -36q54 0 95 21.5t79 67.5q10 -53 33 -89l100 31v30q-12 -4 -27 -4t-20.5 13t-5.5 40v336q0 20 2 54v7l-138 -46v-30q13 4 25 4q16 0 23 -18.5t7 -68.5v-201q-19 -34 -52.5 -61.5t-76.5 -27.5
q-45 0 -71.5 26t-26.5 71v291q0 20 2 54v7z" />
    <glyph glyph-name="v" unicode="v" horiz-adv-x="444" 
d="M237 -15l126 267l4 8q25 54 38.5 92.5t13.5 74.5q0 26 -14.5 45.5t-45.5 19.5q-25 0 -37.5 -14.5t-12.5 -37.5q0 -17 6 -28.5t18 -25.5q9 -12 14 -21t5 -20q0 -12 -7.5 -35.5t-22.5 -54.5l-84 -180l-146 417l-105 -29v-30q12 4 24 4q10 0 17.5 -13.5t17.5 -40.5l4 -11
l142 -387h45z" />
    <glyph glyph-name="w" unicode="w" horiz-adv-x="667" 
d="M212 -15l112 342h2l110 -342h44l111 273q23 56 33.5 93t10.5 75q0 31 -14 48.5t-43 17.5q-27 0 -40 -15t-13 -41q0 -14 7 -25t20 -26q12 -13 17.5 -21t5.5 -18q0 -16 -7 -40t-14 -43l-70 -181h-2l-129 402h-13l-128 -385h-2l-119 393l-109 -32v-30l3 1q12 3 19 3
q14 0 23.5 -15.5t22.5 -56.5l121 -377h41z" />
    <glyph glyph-name="x" unicode="x" horiz-adv-x="444" 
d="M441 0v30l-34 7l-148 218l92 150q24 39 67 42v30h-164v-30q23 -2 35.5 -7t12.5 -19q0 -8 -4 -21t-11 -24l-51 -87l-99 151l50 7v30h-179v-30l34 -7l135 -202l-87 -139l-3 -5q-18 -28 -34.5 -43t-48.5 -21v-30h171v30q-19 0 -34.5 9t-15.5 26q0 19 14 42l61 98l110 -168
l-50 -7v-30h181z" />
    <glyph glyph-name="y" unicode="y" horiz-adv-x="444" 
d="M-4 454v-30q29 0 42 -10.5t24 -41.5l120 -327q7 -18 12 -33t5 -17q0 -8 -7 -24.5t-17.5 -33.5t-22 -29t-21.5 -12t-29 9q-24 11 -38 11q-24 0 -36.5 -13.5t-12.5 -32.5q0 -24 16 -36.5t40 -12.5q50 0 87 35.5t66 99.5l125 271q30 65 47.5 113t17.5 82q0 30 -13.5 50
t-41.5 20q-24 0 -39.5 -14.5t-15.5 -38.5q0 -20 8 -32t23 -26q10 -10 15 -16t5 -15q0 -10 -14 -43l-4 -10l-91 -210h-2l-138 405z" />
    <glyph glyph-name="z" unicode="z" horiz-adv-x="444" 
d="M28 0h240q55 0 101 -11l41 191l-30 6q-34 -75 -78 -112.5t-118 -37.5h-65l283 413v28h-216q-31 0 -60.5 1.5t-49.5 5.5l-39 -171l28 -7q12 28 24.5 50t33.5 41.5t53.5 31.5t76.5 12h54l-279 -403v-38z" />
    <glyph glyph-name="braceleft" unicode="{" horiz-adv-x="333" 
d="M276 748q-42 0 -72 -6t-52 -21.5t-34 -45t-12 -76.5v-188q0 -55 -20 -81.5t-74 -39.5q54 -13 74 -39.5t20 -81.5v-189q0 -47 12 -76.5t34 -45t52 -21.5t72 -6v23q-55 14 -76.5 45t-21.5 89v166q0 65 -20.5 94t-78.5 41v2q58 13 78.5 41.5t20.5 93.5v165q0 58 21.5 89
t76.5 45v23z" />
    <glyph glyph-name="bar" unicode="|" horiz-adv-x="222" 
d="M83 -250h55v1000h-55v-1000z" />
    <glyph glyph-name="braceright" unicode="}" horiz-adv-x="333" 
d="M227 599q0 47 -12 76.5t-34 45t-52 21.5t-72 6v-23q55 -14 76.5 -45t21.5 -89v-166q0 -65 20.5 -93.5t78.5 -41.5v-2q-58 -12 -78.5 -41t-20.5 -94v-165q0 -58 -21.5 -89t-76.5 -45v-23q42 0 72 6t52 21.5t34 45t12 76.5v188q0 55 20.5 81.5t73.5 39.5q-53 13 -73.5 39.5
t-20.5 81.5v189z" />
    <glyph glyph-name="asciitilde" unicode="~" horiz-adv-x="600" 
d="M105 172q16 33 35 52.5t49 19.5q26 0 49.5 -8t56.5 -24l5 -2q35 -17 58.5 -25.5t47.5 -8.5q42 0 68.5 21.5t55.5 63.5l1 1l-36 42q-16 -32 -35 -52t-49 -20q-26 0 -49 8t-57 24l-5 2q-35 17 -58.5 25.5t-47.5 8.5q-42 0 -68 -21.5t-56 -63.5l-1 -1z" />
    <glyph glyph-name="quotesinglbase" unicode="&#x201a;" horiz-adv-x="227" 
d="M72 -157q46 51 73 97t27 97q0 32 -17 55t-44 23q-25 0 -39 -14t-14 -37t12 -35.5t34 -24.5q20 -11 20 -18q0 -13 -7 -30.5t-18 -35.5t-20.5 -31.5t-24.5 -32.5z" />
    <glyph glyph-name="florin" unicode="&#x192;" 
d="M211 385q-6 -33 -11 -73t-13 -109q-9 -79 -16 -131.5t-16.5 -98.5t-22 -73t-28.5 -27q-5 0 -12 10q-9 13 -20 21t-34 8q-17 0 -30 -12.5t-13 -28.5q0 -26 16.5 -41t42.5 -15q29 0 58 15t54 42.5t44 63.5t30 78q17 63 25.5 120.5t17.5 140.5q8 71 13 108h99v48h-93
q0 10 6 52.5t15.5 90t24 82t30.5 34.5q9 0 22 -14q10 -10 20 -16t26 -6q19 0 29.5 13t10.5 24q0 26 -16.5 41.5t-43.5 15.5q-46 0 -83 -32.5t-63 -82.5t-41.5 -104t-20.5 -98h-93v-46h86z" />
    <glyph glyph-name="quotedblbase" unicode="&#x201e;" horiz-adv-x="389" 
d="M59 -157q46 51 73 97t27 97q0 32 -17 55t-44 23q-25 0 -39 -14t-14 -37t12 -35.5t34 -24.5q20 -11 20 -18q0 -13 -7 -30.5t-18 -35.5t-20.5 -31.5t-24.5 -32.5zM249 -157q46 51 73 97t27 97q0 32 -17 55t-44 23q-25 0 -39 -14t-14 -37t12 -35.5t34 -24.5q20 -11 20 -18
q0 -13 -7 -30.5t-18 -35.5t-20.5 -31.5t-24.5 -32.5z" />
    <glyph glyph-name="ellipsis" unicode="&#x2026;" horiz-adv-x="1000" 
d="M771 50q0 -28 17.5 -46.5t44.5 -18.5t44.5 18.5t17.5 46.5t-17.5 46.5t-44.5 18.5t-44.5 -18.5t-17.5 -46.5zM438 50q0 -28 17.5 -46.5t44.5 -18.5t44.5 18.5t17.5 46.5t-17.5 46.5t-44.5 18.5t-44.5 -18.5t-17.5 -46.5zM105 50q0 -28 17.5 -46.5t44.5 -18.5t44.5 18.5
t17.5 46.5t-17.5 46.5t-44.5 18.5t-44.5 -18.5t-17.5 -46.5z" />
    <glyph glyph-name="dagger" unicode="&#x2020;" 
d="M260 -110q0 63 1 110.5t5 99t13 102t24 91.5q-28 34 -35 76.5t-7 107.5q24 0 43.5 -5t44.5 -15q35 -14 53 -14q20 0 30.5 11.5t10.5 31.5t-10.5 31.5t-30.5 11.5q-18 0 -53 -14q-25 -10 -44.5 -15t-43.5 -5q0 31 5.5 55t15.5 53q15 41 15 63t-12.5 35.5t-34.5 13.5
t-34.5 -13.5t-12.5 -35.5t15 -63q10 -29 15.5 -53t5.5 -55q-24 0 -43.5 5t-43.5 15q-36 14 -54 14q-20 0 -30.5 -11.5t-10.5 -31.5t10.5 -31.5t30.5 -11.5q18 0 54 14q24 10 43.5 15t43.5 5q0 -65 -7 -107.5t-35 -76.5q15 -40 24 -90t13 -103.5t5 -100t1 -109.5h20z" />
    <glyph glyph-name="daggerdbl" unicode="&#x2021;" 
d="M250 -114q22 0 34.5 13t12.5 35q0 13 -12 48q-12 33 -18.5 60.5t-6.5 63.5q25 0 44.5 -5t44.5 -15q35 -14 53 -14q20 0 30.5 11.5t10.5 31.5t-10.5 31.5t-30.5 11.5q-18 0 -53 -14q-25 -9 -44.5 -14.5t-44.5 -5.5q1 60 8.5 102.5t33.5 75.5q-26 33 -33.5 74.5t-8.5 100.5
q25 0 44.5 -5t44.5 -15q35 -14 53 -14q20 0 30.5 11.5t10.5 31.5t-10.5 31.5t-30.5 11.5q-18 0 -53 -14q-25 -9 -44.5 -14.5t-44.5 -5.5q0 36 7 64t18 60q12 35 12 48q0 22 -12.5 35t-34.5 13t-34.5 -13t-12.5 -35q0 -13 12 -48q12 -33 18.5 -60.5t6.5 -63.5q-25 0 -44.5 5
t-44.5 15q-35 14 -53 14q-20 0 -30.5 -11.5t-10.5 -31.5t10.5 -31.5t30.5 -11.5q18 0 53 14q25 10 44.5 15t44.5 5q-1 -59 -8.5 -100.5t-33.5 -74.5q26 -33 33.5 -75.5t8.5 -102.5q-25 0 -44.5 5t-44.5 15q-35 14 -53 14q-20 0 -30.5 -11.5t-10.5 -31.5t10.5 -31.5
t30.5 -11.5q18 0 53 14q25 10 44.5 15t44.5 5q0 -36 -7 -64t-18 -60q-12 -35 -12 -48q0 -22 12.5 -35t34.5 -13z" />
    <glyph glyph-name="circumflex" unicode="&#x2c6;" horiz-adv-x="278" 
d="M109 709l-125 -166h35l121 103l122 -103h33l-124 166h-62z" />
    <glyph glyph-name="perthousand" unicode="&#x2030;" horiz-adv-x="1000" 
d="M88 497q0 102 17.5 147.5t55.5 45.5t55.5 -45.5t17.5 -147.5t-17.5 -147.5t-55.5 -45.5t-55.5 45.5t-17.5 147.5zM161 279q39 0 67 20.5t44.5 53.5t24 70.5t7.5 73.5t-7.5 73.5t-24 70.5t-44.5 53.5t-67 20.5t-67 -20.5t-44.5 -53.5t-24 -70.5t-7.5 -73.5t7.5 -73.5
t24 -70.5t44.5 -53.5t67 -20.5zM121 -15h48l415 730h-48zM471 203q0 102 17.5 147.5t55.5 45.5t55.5 -45.5t17.5 -147.5t-17.5 -147.5t-55.5 -45.5t-55.5 45.5t-17.5 147.5zM544 -15q39 0 67 20.5t44.5 53.5t24 70.5t7.5 73.5t-7.5 73.5t-24 70.5t-44.5 53.5t-67 20.5
t-67 -20.5t-44.5 -53.5t-24 -70.5t-7.5 -73.5t7.5 -73.5t24 -70.5t44.5 -53.5t67 -20.5zM804 203q0 102 17.5 147.5t55.5 45.5t55.5 -45.5t17.5 -147.5t-17.5 -147.5t-55.5 -45.5t-55.5 45.5t-17.5 147.5zM877 -15q39 0 67 20.5t44.5 53.5t24 70.5t7.5 73.5t-7.5 73.5
t-24 70.5t-44.5 53.5t-67 20.5t-67 -20.5t-44.5 -53.5t-24 -70.5t-7.5 -73.5t7.5 -73.5t24 -70.5t44.5 -53.5t67 -20.5z" />
    <glyph glyph-name="Scaron" unicode="&#x160;" horiz-adv-x="556" 
d="M261 807l-122 103h-33l124 -166h62l125 166h-35zM80 -3q5 2 7 4q18 9 32.5 14t32.5 5q17 0 30.5 -4t33.5 -13q21 -9 37 -13.5t37 -4.5q52 0 93 17t68.5 46t42 65t14.5 74q0 51 -16.5 87t-44.5 60t-58.5 39t-79.5 34q-43 18 -68.5 30t-48 29.5t-35.5 43t-13 59.5
q0 49 29.5 77.5t74.5 28.5q38 0 68.5 -15t53 -39.5t38.5 -54t32 -67.5l35 5l-40 203q-20 -11 -34 -16.5t-29 -5.5q-8 0 -29 9q-10 4 -16 6q-39 15 -67 15q-81 0 -133.5 -53.5t-52.5 -135.5q0 -44 15.5 -77t41.5 -55.5t56 -38t76 -35.5q42 -18 69 -32t50 -32.5t36.5 -45.5
t13.5 -62q0 -55 -42 -89t-92 -34q-41 0 -76 17.5t-62.5 46.5t-48 62.5t-37.5 70.5l-32 -7z" />
    <glyph glyph-name="guilsinglleft" unicode="&#x2039;" horiz-adv-x="278" 
d="M237 429q-2 0 -8 -5t-10 -9q-33 -33 -64 -61t-70 -63q-20 -18 -21 -19q-4 -4 -16 -14q-20 -16 -20 -20t20 -20q12 -10 16 -14q1 -1 21 -19q38 -34 69.5 -62.5t64.5 -61.5q4 -4 10 -9t8 -5q12 0 12 10q0 6 -16.5 31t-39 55.5t-44.5 58.5t-29 36q7 8 28.5 35.5t45 59
t39.5 56t16 30.5q0 10 -12 10z" />
    <glyph glyph-name="OE" unicode="&#x152;" horiz-adv-x="1000" 
d="M969 211l-35 4q-21 -49 -43 -82t-50 -54.5t-67.5 -32t-94.5 -10.5t-83 5v315h48q51 0 73 -21t37 -90h33v258h-33q-15 -68 -37 -89.5t-73 -21.5h-46v267q28 5 83 5q86 0 139.5 -35.5t97.5 -126.5l31 6l-44 207q-29 -9 -55 -12t-70 -3h-205q-43 0 -111 8q-63 7 -102 7
q-71 0 -131 -30t-102.5 -82.5t-65 -119.5t-22.5 -140q0 -67 20.5 -131.5t59.5 -115.5t93 -81t119 -30q39 0 102 7q68 8 111 8h244q42 0 63 -2q34 -3 62 -13zM500 191q0 -78 -36.5 -122t-109.5 -44q-58 0 -98 24t-64 67.5t-34.5 102t-10.5 131.5q0 146 54.5 235.5t152.5 89.5
q73 0 109.5 -32.5t36.5 -111.5v-340z" />
    <glyph glyph-name="quoteleft" unicode="&#x2018;" horiz-adv-x="227" 
d="M161 715q-19 -18 -38 -39t-36 -46t-27 -51t-10 -51q0 -39 17.5 -62t47.5 -23q25 0 36 15.5t11 32.5q0 25 -12 39t-32 26q-19 11 -19 18q0 11 7 26t18 31t20.5 28t24.5 30l8 10z" />
    <glyph glyph-name="quoteright" unicode="&#x2019;" horiz-adv-x="227" 
d="M72 443q46 51 73 97t27 97q0 32 -17 55t-44 23q-25 0 -39 -14t-14 -37t12 -35.5t34 -24.5q20 -11 20 -18q0 -13 -7 -30.5t-18 -35.5t-20.5 -31.5t-24.5 -32.5z" />
    <glyph glyph-name="quotedblleft" unicode="&#x201c;" horiz-adv-x="389" 
d="M337 715q-19 -18 -38 -39t-36 -46t-27 -51t-10 -51q0 -39 17.5 -62t47.5 -23q25 0 36 15.5t11 32.5q0 25 -12 39t-32 26q-19 11 -19 18q0 11 7 26t18 31t20.5 28t24.5 30l8 10zM147 715q-19 -18 -38 -39t-36 -46t-27 -51t-10 -51q0 -39 17.5 -62t47.5 -23q25 0 36 15.5
t11 32.5q0 25 -12 39t-32 26q-19 11 -19 18q0 11 7 26t18 31t20.5 28t24.5 30l8 10z" />
    <glyph glyph-name="quotedblright" unicode="&#x201d;" horiz-adv-x="389" 
d="M59 443q46 51 73 97t27 97q0 32 -17 55t-44 23q-25 0 -39 -14t-14 -37t12 -35.5t34 -24.5q20 -11 20 -18q0 -13 -7 -30.5t-18 -35.5t-20.5 -31.5t-24.5 -32.5zM249 443q46 51 73 97t27 97q0 32 -17 55t-44 23q-25 0 -39 -14t-14 -37t12 -35.5t34 -24.5q20 -11 20 -18
q0 -13 -7 -30.5t-18 -35.5t-20.5 -31.5t-24.5 -32.5z" />
    <glyph glyph-name="bullet" unicode="&#x2022;" 
d="M425 350q0 35 -13 66.5t-36.5 56t-55.5 38.5t-70 14q-37 0 -69.5 -14t-56 -38.5t-36.5 -56t-13 -66.5t13 -66.5t36.5 -56t56 -38.5t69.5 -14q38 0 70 14t55.5 38.5t36.5 56t13 66.5z" />
    <glyph glyph-name="endash" unicode="&#x2013;" 
d="M500 212v54h-500v-54h500z" />
    <glyph glyph-name="emdash" unicode="&#x2014;" horiz-adv-x="1000" 
d="M1000 212v54h-1000v-54h1000z" />
    <glyph glyph-name="tilde" unicode="&#x2dc;" horiz-adv-x="278" 
d="M3 568q8 21 21.5 33t34.5 12q19 0 63 -23v0q20 -10 37.5 -16t34.5 -6q46 0 74 29t36 77h-29q-6 -22 -20.5 -36t-35.5 -14q-12 0 -28.5 6t-36.5 16q-46 23 -74 23q-46 0 -70.5 -27t-35.5 -74h29z" />
    <glyph glyph-name="trademark" unicode="&#x2122;" horiz-adv-x="990" 
d="M36 700v-88h19q9 33 22.5 51t45.5 18h51v-322q0 -27 -7.5 -34t-42.5 -10v-19h163v19q-34 3 -42 10t-8 34v322h51q32 0 46 -18t22 -51h19v88h-339zM668 293h9l155 314h2v-252q0 -23 -8 -30.5t-42 -9.5v-19h163v19q-34 2 -42 9.5t-8 30.5v269q0 28 12.5 42t44.5 15v19h-98
l-164 -315l-157 315h-115v-19q23 0 46 -14.5t23 -35.5v-252q0 -33 -10.5 -46.5t-41.5 -17.5v-19h129v19q-30 4 -41 17.5t-11 46.5v225h2z" />
    <glyph glyph-name="scaron" unicode="&#x161;" horiz-adv-x="389" 
d="M195 606l-122 103h-33l124 -166h62l125 166h-35zM349 132q0 37 -11.5 63.5t-30.5 44.5t-40 29.5t-54 26.5q-48 22 -71 40.5t-23 51.5q0 30 19 49t50 19q11 0 18 -7t16 -23q11 -18 21 -27.5t27 -9.5q24 0 36.5 11t12.5 36t-22.5 40.5t-64.5 15.5q-85 0 -132.5 -37
t-47.5 -101q0 -28 10 -50t27 -37.5t36 -26.5t50 -27q54 -27 80.5 -50t26.5 -63q0 -37 -30.5 -58t-73.5 -21q-24 0 -34 12.5t-18 38.5t-18 39t-36 13q-47 0 -47 -52q0 -37 45.5 -62t105.5 -25q78 0 125.5 43t47.5 104z" />
    <glyph glyph-name="guilsinglright" unicode="&#x203a;" horiz-adv-x="278" 
d="M41 47q2 0 8 5t10 9q33 33 64 61t70 63q20 18 21 19q4 4 16 14q20 16 20 20t-20 20q-12 10 -16 14q-1 1 -21 19q-38 34 -69.5 62.5t-64.5 61.5q-4 4 -10 9t-8 5q-12 0 -12 -10q0 -6 16.5 -31t39 -55.5t44.5 -58.5t29 -36q-7 -8 -28.5 -35.5t-45 -59t-39.5 -56t-16 -30.5
q0 -10 12 -10z" />
    <glyph glyph-name="oe" unicode="&#x153;" horiz-adv-x="778" 
d="M740 300q-11 84 -55.5 138t-125.5 54q-46 0 -84.5 -26.5t-64.5 -68.5q-33 44 -73 69.5t-91 25.5q-45 0 -83.5 -19.5t-67.5 -55t-44.5 -81.5t-15.5 -98q0 -58 17.5 -105.5t47 -80.5t66.5 -50t75 -17q46 0 88 23t73 65q36 -45 70 -66.5t82 -21.5q62 0 113.5 34t83.5 90
l-28 20q-25 -37 -54 -57t-69 -20q-67 0 -107 52t-46 123zM244 21q-66 0 -91.5 48t-25.5 169q0 101 27.5 159.5t89.5 58.5q63 0 90 -43.5t27 -132.5q0 -132 -26.5 -195.5t-90.5 -63.5zM444 264q-2 12 -2 37q0 27 7.5 54.5t22.5 50t38.5 36.5t53.5 14q35 0 59.5 -24.5
t24.5 -67.5q0 -26 -10.5 -39.5t-37.5 -20.5z" />
    <glyph glyph-name="Ydieresis" unicode="&#x178;" horiz-adv-x="556" 
d="M162 860q-20 0 -34.5 -15t-14.5 -35t14.5 -35t34.5 -15q21 0 35 15t14 35t-14 35t-35 15zM360 860q-20 0 -34.5 -15t-14.5 -35t14.5 -35t34.5 -15q21 0 35 15t14 35t-14 35t-35 15zM384 0v36l-60 7v242l153 310q16 33 35 48t52 21v36h-203v-36l5 -1q30 -5 47 -13.5
t17 -31.5q0 -14 -10 -41t-22 -50l-93 -188l-157 318l61 7v36h-217v-36l49 -7l187 -371v-243l-61 -7v-36h217z" />
    <glyph glyph-name="exclamdown" unicode="&#xa1;" horiz-adv-x="278" 
d="M124 371v-61q0 -62 -6.5 -129t-17.5 -155q-8 -58 -11.5 -90.5t-3.5 -55.5q0 -25 14 -42t40 -17t40 17t14 42q0 23 -3.5 55.5t-10.5 90.5q-13 94 -19 158t-6 126v61h-30zM81 491q0 -25 16 -42.5t42 -17.5t42 17.5t16 42.5t-16 42.5t-42 17.5t-42 -17.5t-16 -42.5z" />
    <glyph glyph-name="cent" unicode="&#xa2;" 
d="M409 236q-22 -31 -48 -49t-63 -18q-6 0 -18 2h-2v382q20 0 28 -10t14 -31q7 -24 17.5 -36t39.5 -12q20 0 31.5 12.5t11.5 31.5q0 24 -12.5 40t-34 25.5t-45.5 13t-50 3.5v98h-42v-101q-80 -24 -123 -93t-43 -156t43 -151t123 -76v-111h42v111q50 5 88 32t65 73zM236 183
q-53 32 -73 84t-20 117q0 58 24 103t69 62v-366z" />
    <glyph glyph-name="sterling" unicode="&#xa3;" 
d="M69 387v-42h92q3 -8 15 -41q17 -45 26 -72t9 -45q0 -20 -1 -30q-42 22 -71.5 33t-61.5 11q-48 0 -78 -29t-30 -79t30 -79t78 -29q49 0 88.5 24.5t65.5 65.5q1 -1 17 -16q39 -36 68 -55t65 -19t60.5 23t38 57.5t19 69t5.5 62.5h-31q-9 -49 -30.5 -78.5t-64.5 -29.5
q-24 0 -54.5 12t-67.5 31q14 50 14 96q0 29 -3.5 60.5t-9.5 56.5h138v42h-148q-11 46 -11 82q0 51 11 90.5t28 64.5t35 37t32 12q8 0 13.5 -6.5t11.5 -20.5q11 -23 25 -36.5t44 -13.5q51 0 51 53q0 32 -27 49t-62 17q-51 0 -97.5 -19t-81 -54t-54 -80.5t-19.5 -97.5
q0 -42 4 -77h-81zM11 93q0 28 19.5 47t51.5 19q28 0 59.5 -15.5t57.5 -37.5q-19 -39 -47 -59t-70 -20q-32 0 -51.5 19t-19.5 47z" />
    <glyph glyph-name="currency" unicode="&#xa4;" 
d="M1 141l40 -40l54 58q33 -29 72 -43t83 -14t83 14t72 43l54 -58l40 40l-54 57q27 34 40 69.5t13 82.5t-13 82.5t-40 69.5l54 57l-40 40l-54 -58q-33 29 -72 43t-83 14t-83 -14t-72 -43l-54 58l-40 -40l54 -57q-27 -34 -40 -69.5t-13 -82.5t13 -82.5t40 -69.5zM437 350
q0 -38 -14 -72.5t-39.5 -61.5t-60 -42t-73.5 -15t-73 15t-60 42t-40 61.5t-14 72.5t14 72.5t40 61.5t60 42t73 15t73 -15t60 -42t40 -61.5t14 -72.5z" />
    <glyph glyph-name="yen" unicode="&#xa5;" 
d="M154 392l34 -73h-152v-42h169v-234l-60 -7v-36h210v36l-60 7v234h166v42h-153l33 73h142v42h-123l71 161q15 32 32.5 47.5t48.5 21.5v36h-185v-36l6 -1q27 -5 41.5 -13.5t14.5 -31.5q0 -14 -9.5 -41.5t-19.5 -49.5l-86 -188l-145 318l57 7v36h-199v-36l44 -7l104 -223
h-121v-42h140z" />
    <glyph glyph-name="brokenbar" unicode="&#xa6;" horiz-adv-x="222" 
d="M83 -175h55v350h-55v-350zM83 325h55v350h-55v-350z" />
    <glyph glyph-name="section" unicode="&#xa7;" 
d="M428 286q0 30 -13 58t-35 53t-46.5 46t-59.5 49q-55 43 -81 70t-26 54q0 37 24.5 57.5t61.5 20.5q26 0 43.5 -8t17.5 -22q0 -5 -12 -18q-11 -11 -17 -19.5t-6 -18.5q0 -20 14.5 -32t35.5 -12q24 0 37 16.5t13 38.5q0 38 -39 67q-18 14 -40.5 21.5t-45.5 7.5
q-64 0 -103 -31.5t-39 -89.5q0 -47 24 -78.5t73 -70.5l-2 -2q-39 0 -65.5 -10t-41.5 -27.5t-21.5 -38.5t-6.5 -45q0 -33 12.5 -61.5t33.5 -52.5t44.5 -42.5t58.5 -44.5q57 -41 84.5 -69.5t27.5 -63.5q0 -34 -22 -55t-64 -21q-26 0 -51.5 9.5t-25.5 25.5q0 3 10 11
q11 10 18 19.5t7 21.5q0 21 -14.5 33.5t-33.5 12.5q-27 0 -39.5 -15t-12.5 -37q0 -48 41.5 -75t96.5 -27q67 0 106 35t39 92q0 41 -24 73t-68 71l2 2h-2v2q68 0 100 32t32 88zM376 257q0 -29 -19.5 -49.5t-48.5 -20.5q-25 0 -57 17t-61 43.5t-47.5 55t-18.5 48.5
q0 28 18.5 49.5t45.5 21.5q26 0 58.5 -17.5t62.5 -44.5t48.5 -55t18.5 -48z" />
    <glyph glyph-name="dieresis" unicode="&#xa8;" horiz-adv-x="278" 
d="M40 659q-20 0 -34.5 -15t-14.5 -35t14.5 -35t34.5 -15q21 0 35 15t14 35t-14 35t-35 15zM238 659q-20 0 -34.5 -15t-14.5 -35t14.5 -35t34.5 -15q21 0 35 15t14 35t-14 35t-35 15z" />
    <glyph glyph-name="copyright" unicode="&#xa9;" horiz-adv-x="800" 
d="M400 -15q77 0 142.5 30t114 81.5t74.5 117.5t26 136t-26 135.5t-74.5 118t-114 82t-142.5 29.5t-142.5 -30t-114 -81.5t-74.5 -117.5t-26 -136t26 -135.5t74.5 -117.5t114 -82t142.5 -30zM400 26q-61 0 -116 25.5t-97.5 71t-66 104.5t-23.5 123t23.5 123t66 104.5
t97.5 71t116 25.5t116 -25.5t97.5 -71t66 -104.5t23.5 -123t-23.5 -123t-66 -104.5t-97.5 -71t-116 -25.5zM560 521q0 13 -38.5 27t-93.5 14q-48 0 -90 -14.5t-73.5 -42.5t-48.5 -66t-17 -84q0 -95 62.5 -151t166.5 -56q50 0 89 12t42 23l18 76h-16q-18 -46 -46.5 -67.5
t-82.5 -21.5q-75 0 -117.5 49.5t-42.5 135.5t42.5 135.5t117.5 49.5q54 0 81.5 -27.5t30.5 -65.5h16v74z" />
    <glyph glyph-name="ordfeminine" unicode="&#xaa;" horiz-adv-x="266" 
d="M244 608q0 30 -15.5 51t-39 33t-49 17.5t-47.5 5.5q-26 0 -42 -6.5t-16 -27.5q0 -28 28 -28q16 0 23.5 6t14.5 17q4 7 7.5 10.5t10.5 3.5q29 0 46.5 -18.5t17.5 -61.5q-30 -6 -59.5 -16t-55.5 -25.5t-42.5 -37.5t-16.5 -49q0 -31 25.5 -51t61.5 -20q50 0 88 40
q2 -18 11 -29t29 -11q36 0 61 34l-14 12q-9 -11 -20 -11q-7 0 -7 17v145zM182 478q-27 -32 -61 -32q-22 0 -36 14t-14 36q0 21 10.5 37.5t27.5 27.5t35.5 17.5t37.5 9.5v-110z" />
    <glyph glyph-name="guillemotleft" unicode="&#xab;" 
d="M446 429q-2 0 -8 -5t-10 -9q-33 -33 -64 -61t-70 -63q-20 -18 -21 -19q-4 -4 -16 -14q-20 -16 -20 -20t20 -20q12 -10 16 -14q1 -1 21 -19q38 -34 69.5 -62.5t64.5 -61.5q4 -4 10 -9t8 -5q12 0 12 10q0 6 -16.5 31t-39 55.5t-44.5 58.5t-29 36q7 8 28.5 35.5t45 59
t39.5 56t16 30.5q0 10 -12 10zM252 429q-2 0 -8 -5t-10 -9q-33 -33 -64 -61t-70 -63q-20 -18 -21 -19q-4 -4 -16 -14q-20 -16 -20 -20t20 -20q12 -10 16 -14q1 -1 21 -19q38 -34 69.5 -62.5t64.5 -61.5q4 -4 10 -9t8 -5q12 0 12 10q0 6 -16.5 31t-39 55.5t-44.5 58.5t-29 36
q7 8 28.5 35.5t45 59t39.5 56t16 30.5q0 10 -12 10z" />
    <glyph glyph-name="logicalnot" unicode="&#xac;" horiz-adv-x="600" 
d="M484 101h55v258h-477v-55h422v-203z" />
    <glyph glyph-name="minus" unicode="&#xad;" horiz-adv-x="600" 
d="M62 211h477v55h-477v-55z" />
    <glyph glyph-name="minus" unicode="&#x2212;" horiz-adv-x="600" 
d="M62 211h477v55h-477v-55z" />
    <glyph glyph-name="registered" unicode="&#xae;" horiz-adv-x="800" 
d="M400 -15q77 0 142.5 30t114 81.5t74.5 117.5t26 136t-26 135.5t-74.5 118t-114 82t-142.5 29.5t-142.5 -30t-114 -81.5t-74.5 -117.5t-26 -136t26 -135.5t74.5 -117.5t114 -82t142.5 -30zM400 26q-61 0 -116 25.5t-97.5 71t-66 104.5t-23.5 123t23.5 123t66 104.5
t97.5 71t116 25.5t116 -25.5t97.5 -71t66 -104.5t23.5 -123t-23.5 -123t-66 -104.5t-97.5 -71t-116 -25.5zM398 161v16q-38 4 -45 11t-7 41v105h55q23 -33 57 -89q29 -48 44 -66t32 -18h63v9q-16 9 -38.5 33.5t-45.5 55.5l-62 85q39 13 62.5 40t23.5 66q0 47 -35.5 73.5
t-88.5 26.5h-183v-14q38 -4 45 -11t7 -41v-255q0 -34 -7 -41t-45 -11v-16h168zM346 531h49q42 0 60.5 -23t18.5 -66t-18.5 -66t-60.5 -23h-49v178z" />
    <glyph glyph-name="macron" unicode="&#xaf;" horiz-adv-x="278" 
d="M295 583v54h-311v-54h311z" />
    <glyph glyph-name="degree" unicode="&#xb0;" horiz-adv-x="400" 
d="M99 572q0 42 29.5 74t71.5 32t71.5 -32t29.5 -74q0 -41 -29.5 -73.5t-71.5 -32.5t-71.5 32.5t-29.5 73.5zM57 572q0 -60 42.5 -101.5t100.5 -41.5t100.5 41.5t42.5 101.5t-42.5 101.5t-100.5 41.5t-100.5 -41.5t-42.5 -101.5z" />
    <glyph glyph-name="plusminus" unicode="&#xb1;" horiz-adv-x="600" 
d="M273 312h-211v-55h211v-165h55v165h211v55h-211v165h-55v-165zM62 0h477v55h-477v-55z" />
    <glyph glyph-name="twosuperior" unicode="&#xb2;" horiz-adv-x="300" 
d="M284 399l-22 3q-16 -36 -31 -50t-52 -14h-119q1 13 21 33.5t60 53.5q15 12 28 22q56 43 85 76.5t29 76.5q0 49 -35 82t-95 33q-54 0 -92.5 -28.5t-38.5 -71.5q0 -18 11.5 -31t29.5 -13t25 10.5t7 24.5q0 11 -3.5 17.5t-9.5 14.5q-8 10 -8 15q0 18 18 28.5t40 10.5
q43 0 66 -26t23 -66t-22 -71t-68 -74l-1 -1q-62 -59 -115 -136v-32h159q55 0 79 -9z" />
    <glyph glyph-name="threesuperior" unicode="&#xb3;" horiz-adv-x="300" 
d="M141 277q67 0 109.5 33t42.5 89q0 45 -30.5 74t-78.5 38v2q42 13 67.5 36t25.5 62q0 49 -38.5 76.5t-96.5 27.5q-44 0 -80 -18.5t-36 -51.5t35 -33q19 0 25.5 11t6.5 25q0 10 -3 23q-1 3 -2 9q21 15 50 15q40 0 58.5 -25.5t18.5 -62.5t-22 -62t-61 -25q-9 0 -13 2t-10 2
q-5 0 -10.5 -3.5t-5.5 -8.5q0 -13 16 -13q6 0 14 2q6 2 11 2q43 0 69.5 -30t26.5 -72t-23.5 -73t-70.5 -31q-19 0 -34 5t-15 12v22q0 19 -9.5 34.5t-29.5 15.5q-17 0 -25 -9.5t-8 -22.5q0 -36 37 -56.5t89 -20.5z" />
    <glyph glyph-name="acute" unicode="&#xb4;" horiz-adv-x="278" 
d="M101 543l152 94q16 9 25.5 19t9.5 25q0 33 -30 33q-15 0 -28 -7.5t-25 -20.5l-142 -143h38z" />
    <glyph glyph-name="mu" unicode="&#xb5;" horiz-adv-x="556" 
d="M472 431q0 20 2 54v7l-138 -46v-30q13 4 25 4q16 0 23 -18.5t7 -68.5v-201q-19 -34 -52.5 -61.5t-76.5 -27.5q-45 0 -71.5 26t-26.5 71v291q0 20 2 54v7l-138 -46v-30q13 4 25 4q16 0 23 -18.5t7 -68.5v-465l-50 -7v-30h130v164q24 -10 55 -10q54 0 95 21.5t79 67.5
q10 -53 33 -89l100 31v30q-12 -4 -27 -4t-20.5 13t-5.5 40v336z" />
    <glyph glyph-name="paragraph" unicode="&#xb6;" horiz-adv-x="600" 
d="M464 630q0 26 15.5 33.5t62.5 12.5v24h-255q-103 0 -150.5 -50.5t-47.5 -155.5t47.5 -155.5t150.5 -50.5v-450h58v832h61v-832h58v792z" />
    <glyph glyph-name="periodcentered" unicode="&#xb7;" horiz-adv-x="250" 
d="M125 175q28 0 45.5 18.5t17.5 44.5t-17.5 44.5t-45.5 18.5t-45.5 -18.5t-17.5 -44.5t17.5 -44.5t45.5 -18.5z" />
    <glyph glyph-name="periodcentered" unicode="&#x2219;" horiz-adv-x="250" 
d="M125 175q28 0 45.5 18.5t17.5 44.5t-17.5 44.5t-45.5 18.5t-45.5 -18.5t-17.5 -44.5t17.5 -44.5t45.5 -18.5z" />
    <glyph glyph-name="cedilla" unicode="&#xb8;" horiz-adv-x="278" 
d="M103 0l-42 -99l8 -4q6 0 14 1q14 2 21 2q19 0 32 -8.5t13 -25.5q0 -46 -58 -46q-11 0 -29 3.5t-32 8.5l-14 -31q23 -10 42.5 -13.5t49.5 -3.5q57 0 87 24t30 61q0 33 -24 51t-60 18q-7 0 -19 -2q-6 -1 -10 -1l26 65h-35z" />
    <glyph glyph-name="onesuperior" unicode="&#xb9;" horiz-adv-x="300" 
d="M276 286v22l-68 5v402l-138 -32v-23q3 0 20 1h19q27 0 34 -7.5t7 -31.5v-307l-82 -7v-22h208z" />
    <glyph glyph-name="ordmasculine" unicode="&#xba;" horiz-adv-x="300" 
d="M151 436q-41 0 -56.5 33t-15.5 94q0 59 15.5 93t56.5 34q38 0 55 -35t17 -92q0 -59 -16.5 -93t-55.5 -34zM151 411q31 0 57 13t45 35.5t29.5 49.5t10.5 54t-10.5 54t-29.5 49t-45 35.5t-57 13.5t-57 -13t-45 -35.5t-29.5 -49.5t-10.5 -54t10.5 -54.5t29.5 -49.5t45 -35
t57 -13z" />
    <glyph glyph-name="guillemotright" unicode="&#xbb;" 
d="M54 47q2 0 8 5t10 9q33 33 64 61t70 63q20 18 21 19q4 4 16 14q20 16 20 20t-20 20q-12 10 -16 14q-1 1 -21 19q-38 34 -69.5 62.5t-64.5 61.5q-4 4 -10 9t-8 5q-12 0 -12 -10q0 -6 16.5 -31t39 -55.5t44.5 -58.5t29 -36q-7 -8 -28.5 -35.5t-45 -59t-39.5 -56t-16 -30.5
q0 -10 12 -10zM248 47q2 0 8 5t10 9q33 33 64 61t70 63q20 18 21 19q4 4 16 14q20 16 20 20t-20 20q-12 10 -16 14q-1 1 -21 19q-38 34 -69.5 62.5t-64.5 61.5q-4 4 -10 9t-8 5q-12 0 -12 -10q0 -6 16.5 -31t39 -55.5t44.5 -58.5t29 -36q-7 -8 -28.5 -35.5t-45 -59
t-39.5 -56t-16 -30.5q0 -10 12 -10z" />
    <glyph glyph-name="onequarter" unicode="&#xbc;" horiz-adv-x="750" 
d="M288 286v22l-68 5v402l-138 -32v-23q3 0 20 1h19q27 0 34 -7.5t7 -31.5v-307l-82 -7v-22h208zM562 429q-24 -103 -66 -176q-36 -61 -84 -123v-33h173v-71l-44 -4v-22h140v22l-38 4v71h62v31h-62v235h-2l-56 -85v-150h-148q126 147 197 299v2h-72zM599 715l-450 -730h51
l450 730h-51z" />
    <glyph glyph-name="onehalf" unicode="&#xbd;" horiz-adv-x="750" 
d="M703 113l-22 3q-16 -36 -31 -50t-52 -14h-119q1 13 21 33.5t60 53.5q15 12 28 22q56 43 85 76.5t29 76.5q0 49 -35 82t-95 33q-54 0 -92.5 -28.5t-38.5 -71.5q0 -18 11.5 -31t29.5 -13t25 10.5t7 24.5q0 11 -3.5 17.5t-9.5 14.5q-8 10 -8 15q0 18 18 28.5t40 10.5
q43 0 66 -26t23 -66t-22 -71t-68 -74l-1 -1q-62 -59 -115 -136v-32h159q55 0 79 -9zM288 286v22l-68 5v402l-138 -32v-23q3 0 20 1h19q27 0 34 -7.5t7 -31.5v-307l-82 -7v-22h208zM576 715l-450 -730h51l450 730h-51z" />
    <glyph glyph-name="threequarters" unicode="&#xbe;" horiz-adv-x="750" 
d="M562 429q-24 -103 -66 -176q-36 -61 -84 -123v-33h173v-71l-44 -4v-22h140v22l-38 4v71h62v31h-62v235h-2l-56 -85v-150h-148q126 147 197 299v2h-72zM607 715l-450 -730h51l450 730h-51zM171 277q67 0 109.5 33t42.5 89q0 45 -30.5 74t-78.5 38v2q42 13 67.5 36t25.5 62
q0 49 -38.5 76.5t-96.5 27.5q-44 0 -80 -18.5t-36 -51.5t35 -33q19 0 25.5 11t6.5 25q0 10 -3 23q-1 3 -2 9q21 15 50 15q40 0 58.5 -25.5t18.5 -62.5t-22 -62t-61 -25q-9 0 -13 2t-10 2q-5 0 -10.5 -3.5t-5.5 -8.5q0 -13 16 -13q6 0 14 2q6 2 11 2q43 0 69.5 -30t26.5 -72
t-23.5 -73t-70.5 -31q-19 0 -34 5t-15 12v22q0 19 -9.5 34.5t-29.5 15.5q-17 0 -25 -9.5t-8 -22.5q0 -36 37 -56.5t89 -20.5z" />
    <glyph glyph-name="questiondown" unicode="&#xbf;" horiz-adv-x="389" 
d="M225 366v-134q-75 -22 -123 -77.5t-48 -129.5q0 -41 16.5 -78.5t44.5 -65.5t63.5 -44t72.5 -16q83 0 83 60q0 22 -13.5 36t-37.5 14q-23 0 -37 -13t-28 -35q-12 -19 -18 -19q-32 0 -59 36.5t-27 83.5q0 60 40.5 104.5t102.5 57.5v220h-32zM185 491q0 -25 16 -42.5
t42 -17.5t42 17.5t16 42.5t-16 42.5t-42 17.5t-42 -17.5t-16 -42.5z" />
    <glyph glyph-name="Agrave" unicode="&#xc0;" horiz-adv-x="556" 
d="M342 744l-142 143q-12 13 -25 20.5t-28 7.5q-30 0 -30 -33q0 -15 10 -25t25 -19l152 -94h38zM567 0v36l-52 6l-205 663l-113 -5l28 -60l-170 -541q-10 -33 -25.5 -45t-51.5 -18v-36h193v36q-38 1 -55 12.5t-17 39.5q0 16 5 32l31 104h230l53 -182l-59 -6v-36h208z
M149 263l100 330h2l101 -330h-203z" />
    <glyph glyph-name="Aacute" unicode="&#xc1;" horiz-adv-x="556" 
d="M228 744l152 94q16 9 25.5 19t9.5 25q0 33 -30 33q-15 0 -28 -7.5t-25 -20.5l-142 -143h38zM567 0v36l-52 6l-205 663l-113 -5l28 -60l-170 -541q-10 -33 -25.5 -45t-51.5 -18v-36h193v36q-38 1 -55 12.5t-17 39.5q0 16 5 32l31 104h230l53 -182l-59 -6v-36h208zM149 263
l100 330h2l101 -330h-203z" />
    <glyph glyph-name="Acircumflex" unicode="&#xc2;" horiz-adv-x="556" 
d="M236 910l-125 -166h35l121 103l122 -103h33l-124 166h-62zM567 0v36l-52 6l-205 663l-113 -5l28 -60l-170 -541q-10 -33 -25.5 -45t-51.5 -18v-36h193v36q-38 1 -55 12.5t-17 39.5q0 16 5 32l31 104h230l53 -182l-59 -6v-36h208zM149 263l100 330h2l101 -330h-203z" />
    <glyph glyph-name="Atilde" unicode="&#xc3;" horiz-adv-x="556" 
d="M130 769q8 21 21.5 33t34.5 12q19 0 63 -23v0q20 -10 37.5 -16t34.5 -6q46 0 74 29t36 77h-29q-6 -22 -20.5 -36t-35.5 -14q-12 0 -28.5 6t-36.5 16q-46 23 -74 23q-46 0 -70.5 -27t-35.5 -74h29zM567 0v36l-52 6l-205 663l-113 -5l28 -60l-170 -541q-10 -33 -25.5 -45
t-51.5 -18v-36h193v36q-38 1 -55 12.5t-17 39.5q0 16 5 32l31 104h230l53 -182l-59 -6v-36h208zM149 263l100 330h2l101 -330h-203z" />
    <glyph glyph-name="Adieresis" unicode="&#xc4;" horiz-adv-x="556" 
d="M167 860q-20 0 -34.5 -15t-14.5 -35t14.5 -35t34.5 -15q21 0 35 15t14 35t-14 35t-35 15zM365 860q-20 0 -34.5 -15t-14.5 -35t14.5 -35t34.5 -15q21 0 35 15t14 35t-14 35t-35 15zM567 0v36l-52 6l-205 663l-113 -5l28 -60l-170 -541q-10 -33 -25.5 -45t-51.5 -18v-36
h193v36q-38 1 -55 12.5t-17 39.5q0 16 5 32l31 104h230l53 -182l-59 -6v-36h208zM149 263l100 330h2l101 -330h-203z" />
    <glyph glyph-name="Aring" unicode="&#xc5;" horiz-adv-x="556" 
d="M365 843q0 42 -27 71t-72 29t-72 -29t-27 -71t27 -71t72 -29t72 29t27 71zM331 843q0 -27 -17.5 -46.5t-47.5 -19.5t-47.5 19.5t-17.5 46.5q0 28 17.5 47t47.5 19t47.5 -19t17.5 -47zM567 0v36l-52 6l-205 663l-113 -5l28 -60l-170 -541q-10 -33 -25.5 -45t-51.5 -18v-36
h193v36q-38 1 -55 12.5t-17 39.5q0 16 5 32l31 104h230l53 -182l-59 -6v-36h208zM149 263l100 330h2l101 -330h-203z" />
    <glyph glyph-name="AE" unicode="&#xc6;" horiz-adv-x="889" 
d="M472 355h48q51 0 73.5 -21t36.5 -89h33v257h-33q-15 -68 -37 -89.5t-73 -21.5h-46v267q41 6 83 6q54 0 89 -8t59.5 -26.5t44 -47.5t44.5 -81l31 6l-44 208q-28 -10 -53.5 -12.5t-71.5 -2.5h-364q11 -23 35 -42l-307 -552q-17 -29 -38 -46.5t-52 -23.5v-36h196v36
q-26 0 -44.5 8t-18.5 31q0 15 9.5 35.5t27.5 52.5l6 10l58 103h214v-233l-60 -7v-36h348q44 0 70 -3t55 -12l54 226l-35 4q-21 -49 -43 -82t-50 -54.5t-67.5 -32t-94.5 -10.5t-83 5v314zM188 315l188 349h2v-349h-190z" />
    <glyph glyph-name="Ccedilla" unicode="&#xc7;" horiz-adv-x="611" 
d="M535 206q-27 -71 -71 -113.5t-110 -42.5q-38 0 -73.5 19t-65 59.5t-46.5 106.5t-17 156q0 144 44 214t120 70q39 0 69.5 -15.5t54.5 -41.5t40 -53.5t38 -70.5l5 -9l34 8l-47 222q-19 -12 -33 -17.5t-31 -5.5q-14 0 -42 9l-9 3q-33 11 -76 11q-61 0 -112 -32t-87 -87
t-55 -124.5t-19 -141.5q0 -64 16 -123t47.5 -106.5t77.5 -77.5t104 -36l-37 -86l8 -4q6 0 14 1q14 2 21 2q19 0 32 -8.5t13 -25.5q0 -46 -58 -46q-11 0 -29 3.5t-32 8.5l-14 -31q23 -10 42.5 -13.5t49.5 -3.5q57 0 87 24t30 61q0 33 -24 51t-60 18q-7 0 -19 -2q-6 -1 -10 -1
l20 50q89 1 151.5 61t89.5 151z" />
    <glyph glyph-name="Egrave" unicode="&#xc8;" horiz-adv-x="611" 
d="M382 744l-142 143q-12 13 -25 20.5t-28 7.5q-30 0 -30 -33q0 -15 10 -25t25 -19l152 -94h38zM102 43l-60 -7v-36h348q44 0 70 -3t55 -12l54 226l-35 4q-40 -93 -99.5 -136t-155.5 -43q-55 0 -83 5v315h48q51 0 73 -21t37 -90h33v258h-33q-15 -68 -37 -89.5t-73 -21.5h-46
v267q28 5 83 5q46 0 80.5 -8t61 -26.5t49.5 -49t46 -78.5l31 6l-44 207q-29 -9 -55 -12t-70 -3h-338v-36l60 -7v-614z" />
    <glyph glyph-name="Eacute" unicode="&#xc9;" horiz-adv-x="611" 
d="M268 744l152 94q16 9 25.5 19t9.5 25q0 33 -30 33q-15 0 -28 -7.5t-25 -20.5l-142 -143h38zM102 43l-60 -7v-36h348q44 0 70 -3t55 -12l54 226l-35 4q-40 -93 -99.5 -136t-155.5 -43q-55 0 -83 5v315h48q51 0 73 -21t37 -90h33v258h-33q-15 -68 -37 -89.5t-73 -21.5h-46
v267q28 5 83 5q46 0 80.5 -8t61 -26.5t49.5 -49t46 -78.5l31 6l-44 207q-29 -9 -55 -12t-70 -3h-338v-36l60 -7v-614z" />
    <glyph glyph-name="Ecircumflex" unicode="&#xca;" horiz-adv-x="611" 
d="M276 910l-125 -166h35l121 103l122 -103h33l-124 166h-62zM102 43l-60 -7v-36h348q44 0 70 -3t55 -12l54 226l-35 4q-40 -93 -99.5 -136t-155.5 -43q-55 0 -83 5v315h48q51 0 73 -21t37 -90h33v258h-33q-15 -68 -37 -89.5t-73 -21.5h-46v267q28 5 83 5q46 0 80.5 -8
t61 -26.5t49.5 -49t46 -78.5l31 6l-44 207q-29 -9 -55 -12t-70 -3h-338v-36l60 -7v-614z" />
    <glyph glyph-name="Edieresis" unicode="&#xcb;" horiz-adv-x="611" 
d="M207 860q-20 0 -34.5 -15t-14.5 -35t14.5 -35t34.5 -15q21 0 35 15t14 35t-14 35t-35 15zM405 860q-20 0 -34.5 -15t-14.5 -35t14.5 -35t34.5 -15q21 0 35 15t14 35t-14 35t-35 15zM102 43l-60 -7v-36h348q44 0 70 -3t55 -12l54 226l-35 4q-40 -93 -99.5 -136t-155.5 -43
q-55 0 -83 5v315h48q51 0 73 -21t37 -90h33v258h-33q-15 -68 -37 -89.5t-73 -21.5h-46v267q28 5 83 5q46 0 80.5 -8t61 -26.5t49.5 -49t46 -78.5l31 6l-44 207q-29 -9 -55 -12t-70 -3h-338v-36l60 -7v-614z" />
    <glyph glyph-name="Igrave" unicode="&#xcc;" horiz-adv-x="333" 
d="M243 744l-142 143q-12 13 -25 20.5t-28 7.5q-30 0 -30 -33q0 -15 9.5 -25t25.5 -19l152 -94h38zM289 0v36l-75 7v614l75 7v36h-246v-36l75 -7v-614l-75 -7v-36h246z" />
    <glyph glyph-name="Iacute" unicode="&#xcd;" horiz-adv-x="333" 
d="M129 744l152 94q16 9 25.5 19t9.5 25q0 33 -30 33q-15 0 -28 -7.5t-25 -20.5l-142 -143h38zM289 0v36l-75 7v614l75 7v36h-246v-36l75 -7v-614l-75 -7v-36h246z" />
    <glyph glyph-name="Icircumflex" unicode="&#xce;" horiz-adv-x="333" 
d="M137 910l-125 -166h35l121 103l122 -103h33l-124 166h-62zM289 0v36l-75 7v614l75 7v36h-246v-36l75 -7v-614l-75 -7v-36h246z" />
    <glyph glyph-name="Idieresis" unicode="&#xcf;" horiz-adv-x="333" 
d="M68 860q-20 0 -34.5 -15t-14.5 -35t14.5 -35t34.5 -15q21 0 35 15t14 35t-14 35t-35 15zM266 860q-20 0 -34.5 -15t-14.5 -35t14.5 -35t34.5 -15q21 0 35 15t14 35t-14 35t-35 15zM289 0v36l-75 7v614l75 7v36h-246v-36l75 -7v-614l-75 -7v-36h246z" />
    <glyph glyph-name="Eth" unicode="&#xd0;" horiz-adv-x="667" 
d="M349 392h-150v271h34q29 1 50 1q56 0 98 -15t72 -50t46 -96.5t16 -152.5q0 -90 -17.5 -151.5t-48.5 -97t-72.5 -50.5t-93.5 -15q-40 0 -84 3v314h150v39zM33 353h70v-310l-60 -7v-36h267q75 0 134 31t98 82t59 113t20 124q0 68 -20 130.5t-60.5 112t-103.5 78.5t-146 29
h-248v-36l60 -7v-265h-70v-39z" />
    <glyph glyph-name="Ntilde" unicode="&#xd1;" horiz-adv-x="667" 
d="M215 769q8 21 21.5 33t34.5 12q19 0 63 -23v0q20 -10 37.5 -16t34.5 -6q46 0 74 29t36 77h-29q-6 -22 -20.5 -36t-35.5 -14q-12 0 -28.5 6t-36.5 16q-46 23 -74 23q-46 0 -70.5 -27t-35.5 -74h29zM529 0h38v552q0 52 14 80.5t61 31.5v36h-194v-36q48 -3 61.5 -25.5
t13.5 -75.5v-391h-2l-343 528h-150v-36q46 0 64.5 -18.5t18.5 -47.5v-474q0 -13 -4 -28t-13.5 -28.5t-25.5 -22.5t-40 -9v-36h210v36q-45 0 -64 30t-19 73v424h2z" />
    <glyph glyph-name="Ograve" unicode="&#xd2;" horiz-adv-x="667" 
d="M410 744l-142 143q-12 13 -25 20.5t-28 7.5q-30 0 -30 -33q0 -15 10 -25t25 -19l152 -94h38zM333 715q-62 0 -116 -31t-93 -84.5t-60 -118.5t-21 -131q0 -65 21 -130.5t60 -118.5t93 -84.5t116 -31.5t116 31.5t93 84.5t60 118.5t21 130.5q0 66 -21 131t-60 118.5
t-93 84.5t-116 31zM333 675q57 0 94 -29t56.5 -76.5t26.5 -102.5t7 -117t-7 -117t-26 -102.5t-56.5 -76.5t-94.5 -29t-94 29t-56.5 76.5t-26.5 102.5t-7 117t7 117t26 102.5t56.5 76.5t94.5 29z" />
    <glyph glyph-name="Oacute" unicode="&#xd3;" horiz-adv-x="667" 
d="M296 744l152 94q16 9 25.5 19t9.5 25q0 33 -30 33q-15 0 -28 -7.5t-25 -20.5l-142 -143h38zM333 715q-62 0 -116 -31t-93 -84.5t-60 -118.5t-21 -131q0 -65 21 -130.5t60 -118.5t93 -84.5t116 -31.5t116 31.5t93 84.5t60 118.5t21 130.5q0 66 -21 131t-60 118.5t-93 84.5
t-116 31zM333 675q57 0 94 -29t56.5 -76.5t26.5 -102.5t7 -117t-7 -117t-26 -102.5t-56.5 -76.5t-94.5 -29t-94 29t-56.5 76.5t-26.5 102.5t-7 117t7 117t26 102.5t56.5 76.5t94.5 29z" />
    <glyph glyph-name="Ocircumflex" unicode="&#xd4;" horiz-adv-x="667" 
d="M304 910l-125 -166h35l121 103l122 -103h33l-124 166h-62zM333 715q-62 0 -116 -31t-93 -84.5t-60 -118.5t-21 -131q0 -65 21 -130.5t60 -118.5t93 -84.5t116 -31.5t116 31.5t93 84.5t60 118.5t21 130.5q0 66 -21 131t-60 118.5t-93 84.5t-116 31zM333 675q57 0 94 -29
t56.5 -76.5t26.5 -102.5t7 -117t-7 -117t-26 -102.5t-56.5 -76.5t-94.5 -29t-94 29t-56.5 76.5t-26.5 102.5t-7 117t7 117t26 102.5t56.5 76.5t94.5 29z" />
    <glyph glyph-name="Otilde" unicode="&#xd5;" horiz-adv-x="667" 
d="M198 769q8 21 21.5 33t34.5 12q19 0 63 -23v0q20 -10 37.5 -16t34.5 -6q46 0 74 29t36 77h-29q-6 -22 -20.5 -36t-35.5 -14q-12 0 -28.5 6t-36.5 16q-46 23 -74 23q-46 0 -70.5 -27t-35.5 -74h29zM333 715q-62 0 -116 -31t-93 -84.5t-60 -118.5t-21 -131q0 -65 21 -130.5
t60 -118.5t93 -84.5t116 -31.5t116 31.5t93 84.5t60 118.5t21 130.5q0 66 -21 131t-60 118.5t-93 84.5t-116 31zM333 675q57 0 94 -29t56.5 -76.5t26.5 -102.5t7 -117t-7 -117t-26 -102.5t-56.5 -76.5t-94.5 -29t-94 29t-56.5 76.5t-26.5 102.5t-7 117t7 117t26 102.5
t56.5 76.5t94.5 29z" />
    <glyph glyph-name="Odieresis" unicode="&#xd6;" horiz-adv-x="667" 
d="M235 860q-20 0 -34.5 -15t-14.5 -35t14.5 -35t34.5 -15q21 0 35 15t14 35t-14 35t-35 15zM433 860q-20 0 -34.5 -15t-14.5 -35t14.5 -35t34.5 -15q21 0 35 15t14 35t-14 35t-35 15zM333 715q-62 0 -116 -31t-93 -84.5t-60 -118.5t-21 -131q0 -65 21 -130.5t60 -118.5
t93 -84.5t116 -31.5t116 31.5t93 84.5t60 118.5t21 130.5q0 66 -21 131t-60 118.5t-93 84.5t-116 31zM333 675q57 0 94 -29t56.5 -76.5t26.5 -102.5t7 -117t-7 -117t-26 -102.5t-56.5 -76.5t-94.5 -29t-94 29t-56.5 76.5t-26.5 102.5t-7 117t7 117t26 102.5t56.5 76.5
t94.5 29z" />
    <glyph glyph-name="multiply" unicode="&#xd7;" horiz-adv-x="600" 
d="M261 238l-199 -199l39 -39l199 199l200 -199l39 39l-200 199l200 200l-39 39l-200 -200l-199 200l-39 -39z" />
    <glyph glyph-name="Oslash" unicode="&#xd8;" horiz-adv-x="667" 
d="M179 141q-17 42 -23.5 95t-6.5 114q0 62 7 117t26 102.5t56.5 76.5t94.5 29q43 0 74 -16t53 -46zM482 573q20 -44 27.5 -101t7.5 -122q0 -62 -7 -117t-26 -102.5t-56.5 -76.5t-94.5 -29q-46 0 -79 19.5t-55 55.5zM65 -49h46l59 100q74 -66 163 -66q62 0 116 31.5t93 84.5
t60 118.5t21 130.5q0 76 -28.5 151t-78.5 129l66 111h-46l-50 -84q-71 58 -153 58q-62 0 -116 -31t-93 -84.5t-60 -118.5t-21 -131q0 -74 26.5 -146t72.5 -124z" />
    <glyph glyph-name="Ugrave" unicode="&#xd9;" horiz-adv-x="611" 
d="M388 744l-142 143q-12 13 -25 20.5t-28 7.5q-30 0 -30 -33q0 -15 10 -25t25 -19l152 -94h38zM86 194q0 -102 59.5 -155.5t159.5 -53.5q104 0 161.5 55t57.5 154v369q0 53 13.5 75.5t61.5 25.5v36h-202v-36q47 0 65 -26t18 -77v-363q0 -88 -40.5 -130.5t-108.5 -42.5
q-77 0 -113 43.5t-36 129.5v459l60 7v36h-216v-36l60 -7v-463z" />
    <glyph glyph-name="Uacute" unicode="&#xda;" horiz-adv-x="611" 
d="M274 744l152 94q16 9 25.5 19t9.5 25q0 33 -30 33q-15 0 -28 -7.5t-25 -20.5l-142 -143h38zM86 194q0 -102 59.5 -155.5t159.5 -53.5q104 0 161.5 55t57.5 154v369q0 53 13.5 75.5t61.5 25.5v36h-202v-36q47 0 65 -26t18 -77v-363q0 -88 -40.5 -130.5t-108.5 -42.5
q-77 0 -113 43.5t-36 129.5v459l60 7v36h-216v-36l60 -7v-463z" />
    <glyph glyph-name="Ucircumflex" unicode="&#xdb;" horiz-adv-x="611" 
d="M282 910l-125 -166h35l121 103l122 -103h33l-124 166h-62zM86 194q0 -102 59.5 -155.5t159.5 -53.5q104 0 161.5 55t57.5 154v369q0 53 13.5 75.5t61.5 25.5v36h-202v-36q47 0 65 -26t18 -77v-363q0 -88 -40.5 -130.5t-108.5 -42.5q-77 0 -113 43.5t-36 129.5v459l60 7
v36h-216v-36l60 -7v-463z" />
    <glyph glyph-name="Udieresis" unicode="&#xdc;" horiz-adv-x="611" 
d="M213 860q-20 0 -34.5 -15t-14.5 -35t14.5 -35t34.5 -15q21 0 35 15t14 35t-14 35t-35 15zM411 860q-20 0 -34.5 -15t-14.5 -35t14.5 -35t34.5 -15q21 0 35 15t14 35t-14 35t-35 15zM86 194q0 -102 59.5 -155.5t159.5 -53.5q104 0 161.5 55t57.5 154v369q0 53 13.5 75.5
t61.5 25.5v36h-202v-36q47 0 65 -26t18 -77v-363q0 -88 -40.5 -130.5t-108.5 -42.5q-77 0 -113 43.5t-36 129.5v459l60 7v36h-216v-36l60 -7v-463z" />
    <glyph glyph-name="Yacute" unicode="&#xdd;" horiz-adv-x="556" 
d="M223 744l152 94q16 9 25.5 19t9.5 25q0 33 -30 33q-15 0 -28 -7.5t-25 -20.5l-142 -143h38zM384 0v36l-60 7v242l153 310q16 33 35 48t52 21v36h-203v-36l5 -1q30 -5 47 -13.5t17 -31.5q0 -14 -10 -41t-22 -50l-93 -188l-157 318l61 7v36h-217v-36l49 -7l187 -371v-243
l-61 -7v-36h217z" />
    <glyph glyph-name="Thorn" unicode="&#xde;" horiz-adv-x="556" 
d="M100 43l-60 -7v-36h216v36l-60 7v150q35 -3 70 -3q129 0 195 46t66 146q0 92 -58.5 139t-150.5 47h-122v89l60 7v36h-216v-36l60 -7v-614zM196 527q25 5 67 5q81 0 124.5 -39.5t43.5 -113.5t-43.5 -113.5t-124.5 -39.5q-42 0 -67 5v296z" />
    <glyph glyph-name="germandbls" unicode="&#xdf;" horiz-adv-x="611" 
d="M46 477v-40h54v-400l-50 -7v-30h131v516q0 90 34.5 143t91.5 53q27 0 49.5 -12t39 -31.5t25 -42t8.5 -43.5q0 -30 -8.5 -51.5t-23 -35.5t-29.5 -21.5t-41 -18.5q-39 -16 -58 -32t-19 -49q0 -39 29.5 -63t88.5 -52q33 -16 52.5 -26.5t37 -25t28 -34t10.5 -44.5
q0 -28 -10.5 -49t-28 -34t-36.5 -19.5t-37 -6.5q-25 0 -35.5 13t-20.5 40q-9 26 -19.5 39t-34.5 13q-51 0 -51 -48q0 -21 13.5 -38.5t35 -30t46.5 -18.5t47 -6q41 0 77.5 13.5t63.5 37.5t42 56t15 68q0 42 -17.5 74t-45 54t-55.5 36t-70 32q-35 14 -51 23t-16 20q0 12 14 19
t45 17q31 9 53 18t43 25t34 41.5t13 62.5q0 27 -15.5 56.5t-42.5 54.5t-61.5 40t-69.5 15q-57 0 -99 -21.5t-69 -59t-39.5 -86.5t-12.5 -104h-55z" />
    <glyph glyph-name="agrave" unicode="&#xe0;" horiz-adv-x="444" 
d="M286 543l-142 143q-12 13 -25 20.5t-28 7.5q-30 0 -30 -33q0 -15 10 -25t25 -19l152 -94h38zM366 319q0 49 -23.5 83.5t-59 54t-71.5 27.5t-64 8q-50 0 -70 -12.5t-20 -44.5q0 -21 12 -33.5t31 -12.5q26 0 37.5 10.5t20.5 30.5q7 13 12.5 19.5t16.5 6.5q14 0 30.5 -7
t32 -23t25.5 -43t10 -66q-45 -10 -90 -27t-84.5 -43t-64.5 -62t-25 -81q0 -52 37 -85.5t89 -33.5q37 0 75.5 18.5t64.5 47.5q2 -27 19 -46.5t42 -19.5q30 0 52.5 15t41.5 41l-21 20q-6 -7 -14 -12.5t-18 -5.5q-11 0 -17.5 6t-6.5 22v248zM285 96q-19 -24 -43 -38.5
t-52 -14.5q-37 0 -59 22.5t-22 60.5q0 35 17 62.5t44 46t56.5 29.5t58.5 16v-184z" />
    <glyph glyph-name="aacute" unicode="&#xe1;" horiz-adv-x="444" 
d="M172 543l152 94q16 9 25.5 19t9.5 25q0 33 -30 33q-15 0 -28 -7.5t-25 -20.5l-142 -143h38zM366 319q0 49 -23.5 83.5t-59 54t-71.5 27.5t-64 8q-50 0 -70 -12.5t-20 -44.5q0 -21 12 -33.5t31 -12.5q26 0 37.5 10.5t20.5 30.5q7 13 12.5 19.5t16.5 6.5q14 0 30.5 -7
t32 -23t25.5 -43t10 -66q-45 -10 -90 -27t-84.5 -43t-64.5 -62t-25 -81q0 -52 37 -85.5t89 -33.5q37 0 75.5 18.5t64.5 47.5q2 -27 19 -46.5t42 -19.5q30 0 52.5 15t41.5 41l-21 20q-6 -7 -14 -12.5t-18 -5.5q-11 0 -17.5 6t-6.5 22v248zM285 96q-19 -24 -43 -38.5
t-52 -14.5q-37 0 -59 22.5t-22 60.5q0 35 17 62.5t44 46t56.5 29.5t58.5 16v-184z" />
    <glyph glyph-name="acircumflex" unicode="&#xe2;" horiz-adv-x="444" 
d="M180 709l-125 -166h35l121 103l122 -103h33l-124 166h-62zM366 319q0 49 -23.5 83.5t-59 54t-71.5 27.5t-64 8q-50 0 -70 -12.5t-20 -44.5q0 -21 12 -33.5t31 -12.5q26 0 37.5 10.5t20.5 30.5q7 13 12.5 19.5t16.5 6.5q14 0 30.5 -7t32 -23t25.5 -43t10 -66
q-45 -10 -90 -27t-84.5 -43t-64.5 -62t-25 -81q0 -52 37 -85.5t89 -33.5q37 0 75.5 18.5t64.5 47.5q2 -27 19 -46.5t42 -19.5q30 0 52.5 15t41.5 41l-21 20q-6 -7 -14 -12.5t-18 -5.5q-11 0 -17.5 6t-6.5 22v248zM285 96q-19 -24 -43 -38.5t-52 -14.5q-37 0 -59 22.5
t-22 60.5q0 35 17 62.5t44 46t56.5 29.5t58.5 16v-184z" />
    <glyph glyph-name="atilde" unicode="&#xe3;" horiz-adv-x="444" 
d="M74 568q8 21 21.5 33t34.5 12q19 0 63 -23v0q20 -10 37.5 -16t34.5 -6q46 0 74 29t36 77h-29q-6 -22 -20.5 -36t-35.5 -14q-12 0 -28.5 6t-36.5 16q-46 23 -74 23q-46 0 -70.5 -27t-35.5 -74h29zM366 319q0 49 -23.5 83.5t-59 54t-71.5 27.5t-64 8q-50 0 -70 -12.5
t-20 -44.5q0 -21 12 -33.5t31 -12.5q26 0 37.5 10.5t20.5 30.5q7 13 12.5 19.5t16.5 6.5q14 0 30.5 -7t32 -23t25.5 -43t10 -66q-45 -10 -90 -27t-84.5 -43t-64.5 -62t-25 -81q0 -52 37 -85.5t89 -33.5q37 0 75.5 18.5t64.5 47.5q2 -27 19 -46.5t42 -19.5q30 0 52.5 15
t41.5 41l-21 20q-6 -7 -14 -12.5t-18 -5.5q-11 0 -17.5 6t-6.5 22v248zM285 96q-19 -24 -43 -38.5t-52 -14.5q-37 0 -59 22.5t-22 60.5q0 35 17 62.5t44 46t56.5 29.5t58.5 16v-184z" />
    <glyph glyph-name="adieresis" unicode="&#xe4;" horiz-adv-x="444" 
d="M111 659q-20 0 -34.5 -15t-14.5 -35t14.5 -35t34.5 -15q21 0 35 15t14 35t-14 35t-35 15zM309 659q-20 0 -34.5 -15t-14.5 -35t14.5 -35t34.5 -15q21 0 35 15t14 35t-14 35t-35 15zM366 319q0 49 -23.5 83.5t-59 54t-71.5 27.5t-64 8q-50 0 -70 -12.5t-20 -44.5
q0 -21 12 -33.5t31 -12.5q26 0 37.5 10.5t20.5 30.5q7 13 12.5 19.5t16.5 6.5q14 0 30.5 -7t32 -23t25.5 -43t10 -66q-45 -10 -90 -27t-84.5 -43t-64.5 -62t-25 -81q0 -52 37 -85.5t89 -33.5q37 0 75.5 18.5t64.5 47.5q2 -27 19 -46.5t42 -19.5q30 0 52.5 15t41.5 41l-21 20
q-6 -7 -14 -12.5t-18 -5.5q-11 0 -17.5 6t-6.5 22v248zM285 96q-19 -24 -43 -38.5t-52 -14.5q-37 0 -59 22.5t-22 60.5q0 35 17 62.5t44 46t56.5 29.5t58.5 16v-184z" />
    <glyph glyph-name="aring" unicode="&#xe5;" horiz-adv-x="444" 
d="M309 642q0 42 -27 71t-72 29t-72 -29t-27 -71t27 -71t72 -29t72 29t27 71zM275 642q0 -27 -17.5 -46.5t-47.5 -19.5t-47.5 19.5t-17.5 46.5q0 28 17.5 47t47.5 19t47.5 -19t17.5 -47zM366 319q0 49 -23.5 83.5t-59 54t-71.5 27.5t-64 8q-50 0 -70 -12.5t-20 -44.5
q0 -21 12 -33.5t31 -12.5q26 0 37.5 10.5t20.5 30.5q7 13 12.5 19.5t16.5 6.5q14 0 30.5 -7t32 -23t25.5 -43t10 -66q-45 -10 -90 -27t-84.5 -43t-64.5 -62t-25 -81q0 -52 37 -85.5t89 -33.5q37 0 75.5 18.5t64.5 47.5q2 -27 19 -46.5t42 -19.5q30 0 52.5 15t41.5 41l-21 20
q-6 -7 -14 -12.5t-18 -5.5q-11 0 -17.5 6t-6.5 22v248zM285 96q-19 -24 -43 -38.5t-52 -14.5q-37 0 -59 22.5t-22 60.5q0 35 17 62.5t44 46t56.5 29.5t58.5 16v-184z" />
    <glyph glyph-name="ae" unicode="&#xe6;" horiz-adv-x="722" 
d="M664 130q-23 -39 -51.5 -58.5t-70.5 -19.5q-34 0 -62.5 14.5t-48.5 39.5t-31.5 56t-13.5 64l297 75q-6 80 -52 135.5t-123 55.5q-52 0 -81 -17t-65 -55l-4 -4q-46 41 -91.5 58.5t-123.5 17.5q-31 0 -54 -14.5t-23 -41.5q0 -18 12.5 -32t35.5 -14q22 0 33.5 10t22.5 29
q9 14 15.5 20.5t16.5 6.5q11 0 28 -7.5t33.5 -22t27.5 -35t11 -46.5v-26q-9 -3 -18 -5q-53 -16 -90.5 -30t-74 -36.5t-59.5 -56.5t-23 -79q0 -55 32 -91t90 -36q54 0 95 26.5t78 72.5q30 -48 74.5 -73.5t94.5 -25.5q62 0 109 32t86 94zM300 103q-17 -25 -47 -42.5t-56 -17.5
q-73 0 -73 99q0 30 16.5 54t42.5 40.5t56.5 26.5t60.5 15v-175zM383 264q-2 20 -2 30q0 71 30.5 116.5t92.5 45.5q34 0 60.5 -28t26.5 -62q0 -22 -11.5 -38.5t-35.5 -22.5z" />
    <glyph glyph-name="ccedilla" unicode="&#xe7;" horiz-adv-x="444" 
d="M399 130q-27 -39 -55 -58.5t-71 -19.5q-74 0 -113.5 65t-39.5 162q0 34 9.5 66t27 57t40 39.5t47.5 14.5q22 0 30.5 -9.5t15.5 -29.5q2 -7 3 -9q9 -24 19.5 -36t33.5 -12q24 0 38 13.5t14 36.5q0 41 -36.5 61.5t-94.5 20.5q-54 0 -96.5 -23t-72 -62.5t-44.5 -90
t-15 -105.5q0 -82 45.5 -146t122.5 -76l-37 -88l8 -4q6 0 14 1q14 2 21 2q19 0 32 -8.5t13 -25.5q0 -46 -58 -46q-11 0 -29 3.5t-32 8.5l-14 -31q23 -10 42.5 -13.5t49.5 -3.5q57 0 87 24t30 61q0 33 -24 51t-60 18q-7 0 -19 -2q-6 -1 -10 -1l20 50q62 0 106 33.5t80 92.5z
" />
    <glyph glyph-name="egrave" unicode="&#xe8;" horiz-adv-x="444" 
d="M310 543l-142 143q-12 13 -25 20.5t-28 7.5q-30 0 -30 -33q0 -15 10 -25t25 -19l152 -94h38zM401 300q-6 40 -18.5 74t-33.5 60.5t-52 42t-71 15.5q-37 0 -70.5 -19.5t-59 -55.5t-40.5 -87t-15 -111q0 -45 12.5 -86.5t37 -75t61.5 -53t84 -19.5q60 0 105 36t71 94l-25 17
q-26 -40 -54 -60t-67 -20q-33 0 -59 15.5t-43 40.5t-26.5 54t-10.5 57zM123 265q-1 10 -1 51q0 25 5.5 49t18.5 45t34.5 33.5t51.5 12.5q39 0 58 -28t19 -62q0 -31 -12.5 -43.5t-40.5 -20.5z" />
    <glyph glyph-name="eacute" unicode="&#xe9;" horiz-adv-x="444" 
d="M196 543l152 94q16 9 25.5 19t9.5 25q0 33 -30 33q-15 0 -28 -7.5t-25 -20.5l-142 -143h38zM401 300q-6 40 -18.5 74t-33.5 60.5t-52 42t-71 15.5q-37 0 -70.5 -19.5t-59 -55.5t-40.5 -87t-15 -111q0 -45 12.5 -86.5t37 -75t61.5 -53t84 -19.5q60 0 105 36t71 94l-25 17
q-26 -40 -54 -60t-67 -20q-33 0 -59 15.5t-43 40.5t-26.5 54t-10.5 57zM123 265q-1 10 -1 51q0 25 5.5 49t18.5 45t34.5 33.5t51.5 12.5q39 0 58 -28t19 -62q0 -31 -12.5 -43.5t-40.5 -20.5z" />
    <glyph glyph-name="ecircumflex" unicode="&#xea;" horiz-adv-x="444" 
d="M204 709l-125 -166h35l121 103l122 -103h33l-124 166h-62zM401 300q-6 40 -18.5 74t-33.5 60.5t-52 42t-71 15.5q-37 0 -70.5 -19.5t-59 -55.5t-40.5 -87t-15 -111q0 -45 12.5 -86.5t37 -75t61.5 -53t84 -19.5q60 0 105 36t71 94l-25 17q-26 -40 -54 -60t-67 -20
q-33 0 -59 15.5t-43 40.5t-26.5 54t-10.5 57zM123 265q-1 10 -1 51q0 25 5.5 49t18.5 45t34.5 33.5t51.5 12.5q39 0 58 -28t19 -62q0 -31 -12.5 -43.5t-40.5 -20.5z" />
    <glyph glyph-name="edieresis" unicode="&#xeb;" horiz-adv-x="444" 
d="M135 659q-20 0 -34.5 -15t-14.5 -35t14.5 -35t34.5 -15q21 0 35 15t14 35t-14 35t-35 15zM333 659q-20 0 -34.5 -15t-14.5 -35t14.5 -35t34.5 -15q21 0 35 15t14 35t-14 35t-35 15zM401 300q-6 40 -18.5 74t-33.5 60.5t-52 42t-71 15.5q-37 0 -70.5 -19.5t-59 -55.5
t-40.5 -87t-15 -111q0 -45 12.5 -86.5t37 -75t61.5 -53t84 -19.5q60 0 105 36t71 94l-25 17q-26 -40 -54 -60t-67 -20q-33 0 -59 15.5t-43 40.5t-26.5 54t-10.5 57zM123 265q-1 10 -1 51q0 25 5.5 49t18.5 45t34.5 33.5t51.5 12.5q39 0 58 -28t19 -62q0 -31 -12.5 -43.5
t-40.5 -20.5z" />
    <glyph glyph-name="igrave" unicode="&#xec;" horiz-adv-x="278" 
d="M215 543l-142 143q-12 13 -25 20.5t-28 7.5q-30 0 -30 -33q0 -15 9.5 -25t25.5 -19l152 -94h38zM230 0v30l-50 7v394q0 20 2 54v7l-138 -46v-30q13 4 25 4q16 0 23 -18.5t7 -68.5v-296l-50 -7v-30h181z" />
    <glyph glyph-name="iacute" unicode="&#xed;" horiz-adv-x="278" 
d="M101 543l152 94q16 9 25.5 19t9.5 25q0 33 -30 33q-15 0 -28 -7.5t-25 -20.5l-142 -143h38zM230 0v30l-50 7v394q0 20 2 54v7l-138 -46v-30q13 4 25 4q16 0 23 -18.5t7 -68.5v-296l-50 -7v-30h181z" />
    <glyph glyph-name="icircumflex" unicode="&#xee;" horiz-adv-x="278" 
d="M109 709l-125 -166h35l121 103l122 -103h33l-124 166h-62zM230 0v30l-50 7v394q0 20 2 54v7l-138 -46v-30q13 4 25 4q16 0 23 -18.5t7 -68.5v-296l-50 -7v-30h181z" />
    <glyph glyph-name="idieresis" unicode="&#xef;" horiz-adv-x="278" 
d="M40 659q-21 0 -35 -15t-14 -35t14 -35t35 -15t35 15t14 35t-14 35t-35 15zM238 659q-20 0 -34.5 -15t-14.5 -35t14.5 -35t34.5 -15q21 0 35 15t14 35t-14 35t-35 15zM230 0v30l-50 7v394q0 20 2 54v7l-138 -46v-30q13 4 25 4q16 0 23 -18.5t7 -68.5v-296l-50 -7v-30h181z
" />
    <glyph glyph-name="eth" unicode="&#xf0;" 
d="M250 456q33 0 56.5 -17t38 -46.5t21 -69t6.5 -85.5t-6.5 -85.5t-21 -69t-38 -46t-56.5 -16.5t-56.5 16.5t-38 46.5t-21 69t-6.5 85t6.5 85.5t21 69t38 46.5t56.5 17zM100 736q53 -49 90 -94l-133 -55l17 -29l139 57q55 -68 91 -132q-24 9 -54 9q-47 0 -87 -22
t-68.5 -59.5t-43.5 -82.5t-15 -90t15 -90t43.5 -82t68.5 -59t87 -22q48 0 87.5 22.5t68 62.5t43.5 91t15 107q0 49 -16.5 97t-45.5 93.5t-65 87.5t-82 86l143 60l-18 30l-152 -64q-26 25 -80 74l-18 16z" />
    <glyph glyph-name="ntilde" unicode="&#xf1;" horiz-adv-x="556" 
d="M142 568q8 21 21.5 33t34.5 12q19 0 63 -23v0q20 -10 37.5 -16t34.5 -6q46 0 74 29t36 77h-29q-6 -22 -20.5 -36t-35.5 -14q-12 0 -28.5 6t-36.5 16q-46 23 -74 23q-46 0 -70.5 -27t-35.5 -74h29zM218 0v30l-50 7v328q30 35 58 52t66 17q54 0 79.5 -33t25.5 -91v-273
l-50 -7v-30h181v30l-50 7v277q0 90 -42 134t-116 44q-47 0 -74 -14.5t-61 -46.5q-11 -10 -17 -15q-4 16 -11.5 33.5t-19.5 42.5v0l-103 -42v-26q30 0 41.5 -12t11.5 -50v-325l-50 -7v-30h181z" />
    <glyph glyph-name="ograve" unicode="&#xf2;" 
d="M326 543l-142 143q-12 13 -25 20.5t-28 7.5q-30 0 -30 -33q0 -15 10 -25t25 -19l152 -94h38zM250 456q33 0 56.5 -17t38 -46.5t21 -69t6.5 -85.5t-6.5 -85.5t-21 -69t-38 -46t-56.5 -16.5t-56.5 16.5t-38 46.5t-21 69t-6.5 85t6.5 85.5t21 69t38 46.5t56.5 17zM36 238
q0 -45 15 -90t43.5 -82t68.5 -59t87 -22t87 22t68.5 59t43.5 82t15 90t-15 90t-43.5 82.5t-68.5 59.5t-87 22t-87 -22t-68.5 -59.5t-43.5 -82.5t-15 -90z" />
    <glyph glyph-name="oacute" unicode="&#xf3;" 
d="M212 543l152 94q16 9 25.5 19t9.5 25q0 33 -30 33q-15 0 -28 -7.5t-25 -20.5l-142 -143h38zM250 456q33 0 56.5 -17t38 -46.5t21 -69t6.5 -85.5t-6.5 -85.5t-21 -69t-38 -46t-56.5 -16.5t-56.5 16.5t-38 46.5t-21 69t-6.5 85t6.5 85.5t21 69t38 46.5t56.5 17zM36 238
q0 -45 15 -90t43.5 -82t68.5 -59t87 -22t87 22t68.5 59t43.5 82t15 90t-15 90t-43.5 82.5t-68.5 59.5t-87 22t-87 -22t-68.5 -59.5t-43.5 -82.5t-15 -90z" />
    <glyph glyph-name="ocircumflex" unicode="&#xf4;" 
d="M220 709l-125 -166h35l121 103l122 -103h33l-124 166h-62zM250 456q33 0 56.5 -17t38 -46.5t21 -69t6.5 -85.5t-6.5 -85.5t-21 -69t-38 -46t-56.5 -16.5t-56.5 16.5t-38 46.5t-21 69t-6.5 85t6.5 85.5t21 69t38 46.5t56.5 17zM36 238q0 -45 15 -90t43.5 -82t68.5 -59
t87 -22t87 22t68.5 59t43.5 82t15 90t-15 90t-43.5 82.5t-68.5 59.5t-87 22t-87 -22t-68.5 -59.5t-43.5 -82.5t-15 -90z" />
    <glyph glyph-name="otilde" unicode="&#xf5;" 
d="M114 568q8 21 21.5 33t34.5 12q19 0 63 -23v0q20 -10 37.5 -16t34.5 -6q46 0 74 29t36 77h-29q-6 -22 -20.5 -36t-35.5 -14q-12 0 -28.5 6t-36.5 16q-46 23 -74 23q-46 0 -70.5 -27t-35.5 -74h29zM250 456q33 0 56.5 -17t38 -46.5t21 -69t6.5 -85.5t-6.5 -85.5t-21 -69
t-38 -46t-56.5 -16.5t-56.5 16.5t-38 46.5t-21 69t-6.5 85t6.5 85.5t21 69t38 46.5t56.5 17zM36 238q0 -45 15 -90t43.5 -82t68.5 -59t87 -22t87 22t68.5 59t43.5 82t15 90t-15 90t-43.5 82.5t-68.5 59.5t-87 22t-87 -22t-68.5 -59.5t-43.5 -82.5t-15 -90z" />
    <glyph glyph-name="odieresis" unicode="&#xf6;" 
d="M151 659q-20 0 -34.5 -15t-14.5 -35t14.5 -35t34.5 -15q21 0 35 15t14 35t-14 35t-35 15zM349 659q-20 0 -34.5 -15t-14.5 -35t14.5 -35t34.5 -15q21 0 35 15t14 35t-14 35t-35 15zM250 456q33 0 56.5 -17t38 -46.5t21 -69t6.5 -85.5t-6.5 -85.5t-21 -69t-38 -46
t-56.5 -16.5t-56.5 16.5t-38 46.5t-21 69t-6.5 85t6.5 85.5t21 69t38 46.5t56.5 17zM36 238q0 -45 15 -90t43.5 -82t68.5 -59t87 -22t87 22t68.5 59t43.5 82t15 90t-15 90t-43.5 82.5t-68.5 59.5t-87 22t-87 -22t-68.5 -59.5t-43.5 -82.5t-15 -90z" />
    <glyph glyph-name="divide" unicode="&#xf7;" horiz-adv-x="600" 
d="M539 211v55h-477v-55h477zM300 492q-25 0 -40.5 -16.5t-15.5 -39.5t15.5 -39.5t40.5 -16.5t40.5 16.5t15.5 39.5t-15.5 39.5t-40.5 16.5zM300 -15q25 0 40.5 16.5t15.5 39.5t-15.5 39.5t-40.5 16.5t-40.5 -16.5t-15.5 -39.5t15.5 -39.5t40.5 -16.5z" />
    <glyph glyph-name="oslash" unicode="&#xf8;" 
d="M143 115q-15 53 -15 123q0 46 6.5 85.5t21 69t38 46.5t56.5 17q50 0 81 -41zM350 380q22 -56 22 -142q0 -46 -6.5 -85.5t-21 -69t-38 -46t-56.5 -16.5q-61 0 -90 54zM357 457q-49 35 -107 35q-47 0 -87 -22t-68.5 -59.5t-43.5 -82.5t-15 -90q0 -49 18.5 -98.5t50.5 -85.5
l-66 -106h42l50 81q50 -44 119 -44q47 0 87 22t68.5 59t43.5 82t15 90q0 53 -21 106t-59 90l60 96h-42z" />
    <glyph glyph-name="ugrave" unicode="&#xf9;" horiz-adv-x="556" 
d="M348 543l-142 143q-12 13 -25 20.5t-28 7.5q-30 0 -30 -33q0 -15 10 -25t25 -19l152 -94h38zM28 446v-30q13 4 25 4q16 0 23 -18.5t7 -68.5v-206q0 -70 39 -106t96 -36q54 0 95 21.5t79 67.5q10 -53 33 -89l100 31v30q-12 -4 -27 -4t-20.5 13t-5.5 40v336q0 20 2 54v7
l-138 -46v-30q13 4 25 4q16 0 23 -18.5t7 -68.5v-201q-19 -34 -52.5 -61.5t-76.5 -27.5q-45 0 -71.5 26t-26.5 71v291q0 20 2 54v7z" />
    <glyph glyph-name="uacute" unicode="&#xfa;" horiz-adv-x="556" 
d="M234 543l152 94q16 9 25.5 19t9.5 25q0 33 -30 33q-15 0 -28 -7.5t-25 -20.5l-142 -143h38zM28 446v-30q13 4 25 4q16 0 23 -18.5t7 -68.5v-206q0 -70 39 -106t96 -36q54 0 95 21.5t79 67.5q10 -53 33 -89l100 31v30q-12 -4 -27 -4t-20.5 13t-5.5 40v336q0 20 2 54v7
l-138 -46v-30q13 4 25 4q16 0 23 -18.5t7 -68.5v-201q-19 -34 -52.5 -61.5t-76.5 -27.5q-45 0 -71.5 26t-26.5 71v291q0 20 2 54v7z" />
    <glyph glyph-name="ucircumflex" unicode="&#xfb;" horiz-adv-x="556" 
d="M242 709l-125 -166h35l121 103l122 -103h33l-124 166h-62zM28 446v-30q13 4 25 4q16 0 23 -18.5t7 -68.5v-206q0 -70 39 -106t96 -36q54 0 95 21.5t79 67.5q10 -53 33 -89l100 31v30q-12 -4 -27 -4t-20.5 13t-5.5 40v336q0 20 2 54v7l-138 -46v-30q13 4 25 4
q16 0 23 -18.5t7 -68.5v-201q-19 -34 -52.5 -61.5t-76.5 -27.5q-45 0 -71.5 26t-26.5 71v291q0 20 2 54v7z" />
    <glyph glyph-name="udieresis" unicode="&#xfc;" horiz-adv-x="556" 
d="M173 659q-20 0 -34.5 -15t-14.5 -35t14.5 -35t34.5 -15q21 0 35 15t14 35t-14 35t-35 15zM371 659q-20 0 -34.5 -15t-14.5 -35t14.5 -35t34.5 -15q21 0 35 15t14 35t-14 35t-35 15zM28 446v-30q13 4 25 4q16 0 23 -18.5t7 -68.5v-206q0 -70 39 -106t96 -36q54 0 95 21.5
t79 67.5q10 -53 33 -89l100 31v30q-12 -4 -27 -4t-20.5 13t-5.5 40v336q0 20 2 54v7l-138 -46v-30q13 4 25 4q16 0 23 -18.5t7 -68.5v-201q-19 -34 -52.5 -61.5t-76.5 -27.5q-45 0 -71.5 26t-26.5 71v291q0 20 2 54v7z" />
    <glyph glyph-name="yacute" unicode="&#xfd;" horiz-adv-x="444" 
d="M184 543l152 94q16 9 25.5 19t9.5 25q0 33 -30 33q-15 0 -28 -7.5t-25 -20.5l-142 -143h38zM-4 454v-30q29 0 42 -10.5t24 -41.5l120 -327q7 -18 12 -33t5 -17q0 -8 -7 -24.5t-17.5 -33.5t-22 -29t-21.5 -12t-29 9q-24 11 -38 11q-24 0 -36.5 -13.5t-12.5 -32.5
q0 -24 16 -36.5t40 -12.5q50 0 87 35.5t66 99.5l125 271q30 65 47.5 113t17.5 82q0 30 -13.5 50t-41.5 20q-24 0 -39.5 -14.5t-15.5 -38.5q0 -20 8 -32t23 -26q10 -10 15 -16t5 -15q0 -10 -14 -43l-4 -10l-91 -210h-2l-138 405z" />
    <glyph glyph-name="thorn" unicode="&#xfe;" 
d="M207 -169v30l-50 7v148q24 -13 48.5 -18.5t59.5 -5.5t69.5 18t63 52t45.5 85t17 114q0 43 -11.5 84t-33 74.5t-54 53t-72.5 19.5q-37 0 -69 -20.5t-63 -55.5v271q0 20 2 54v7l-136 -48v-30q13 4 25 4q16 0 23 -18.5t7 -68.5v-719l-50 -7v-30h179zM159 369q17 24 39 40
t53 16q35 0 60 -19t40 -51t21.5 -69t6.5 -73q0 -37 -6.5 -70.5t-21 -61t-38.5 -43.5t-58 -16q-16 0 -33 6.5t-31 17t-23 22t-9 21.5v280z" />
    <glyph glyph-name="ydieresis" unicode="&#xff;" horiz-adv-x="444" 
d="M123 659q-20 0 -34.5 -15t-14.5 -35t14.5 -35t34.5 -15q21 0 35 15t14 35t-14 35t-35 15zM321 659q-20 0 -34.5 -15t-14.5 -35t14.5 -35t34.5 -15q21 0 35 15t14 35t-14 35t-35 15zM-4 454v-30q29 0 42 -10.5t24 -41.5l120 -327q7 -18 12 -33t5 -17q0 -8 -7 -24.5
t-17.5 -33.5t-22 -29t-21.5 -12t-29 9q-24 11 -38 11q-24 0 -36.5 -13.5t-12.5 -32.5q0 -24 16 -36.5t40 -12.5q50 0 87 35.5t66 99.5l125 271q30 65 47.5 113t17.5 82q0 30 -13.5 50t-41.5 20q-24 0 -39.5 -14.5t-15.5 -38.5q0 -20 8 -32t23 -26q10 -10 15 -16t5 -15
q0 -10 -14 -43l-4 -10l-91 -210h-2l-138 405z" />
    </font>
</defs>
</svg>
